<svg xmlns="http://www.w3.org/2000/svg" xmlns:xlink="http://www.w3.org/1999/xlink" width="200" height="200" viewBox="0 0 200 200" fill="none"><path d="M100 0C98.3635 0 96.7246 0.0396971 95.09 0.12C93.4554 0.200304 91.8287 0.319588 90.2 0.48C88.5713 0.640412 86.9489 0.839865 85.33 1.08C83.7111 1.32013 82.0951 1.60072 80.49 1.92C78.8847 2.23927 77.2875 2.60234 75.7 3C74.1125 3.39766 72.5362 3.83494 70.97 4.31C69.404 4.78508 67.851 5.29865 66.31 5.85C64.7692 6.40135 63.2419 6.98371 61.73 7.61C60.2181 8.23629 58.7195 8.90027 57.24 9.6C55.7605 10.2997 54.3034 11.0385 52.86 11.81C51.4166 12.5815 49.9937 13.3886 48.59 14.23C47.1863 15.0714 45.8007 15.9408 44.44 16.85C43.0793 17.7592 41.7445 18.7051 40.43 19.68C39.1155 20.6548 37.825 21.6617 36.56 22.7C35.295 23.7381 34.0527 24.801 32.84 25.9C31.6273 26.999 30.4472 28.1328 29.29 29.29C28.1328 30.4472 26.999 31.6273 25.9 32.84C24.801 34.0527 23.7381 35.295 22.7 36.56C21.6617 37.825 20.6548 39.1155 19.68 40.43C18.7051 41.7445 17.7592 43.0793 16.85 44.44C15.9408 45.8007 15.0714 47.1863 14.23 48.59C13.3886 49.9937 12.5815 51.4166 11.81 52.86C11.0385 54.3034 10.2997 55.7605 9.6 57.24C8.90027 58.7195 8.23629 60.2181 7.61 61.73C6.98371 63.2419 6.40135 64.7692 5.85 66.31C5.29865 67.851 4.78508 69.404 4.31 70.97C3.83494 72.5362 3.39766 74.1125 3 75.7C2.60234 77.2875 2.23927 78.8847 1.92 80.49C1.60072 82.0951 1.32013 83.7111 1.08 85.33C0.839865 86.9489 0.640412 88.5713 0.48 90.2C0.319588 91.8287 0.200304 93.4554 0.12 95.09C0.0396971 96.7246 0 98.3635 0 100C0 101.637 0.0396971 103.275 0.12 104.91C0.200304 106.545 0.319588 108.171 0.48 109.8C0.640412 111.429 0.839865 113.051 1.08 114.67C1.32013 116.289 1.60072 117.905 1.92 119.51C2.23927 121.115 2.60234 122.713 3 124.3C3.39766 125.887 3.83494 127.464 4.31 129.03C4.78508 130.596 5.29865 132.149 5.85 133.69C6.40135 135.231 6.98371 136.758 7.61 138.27C8.23629 139.782 8.90027 141.281 9.6 142.76C10.2997 144.239 11.0385 145.697 11.81 147.14C12.5815 148.583 13.3886 150.006 14.23 151.41C15.0714 152.814 15.9408 154.199 16.85 155.56C17.7592 156.921 18.7051 158.255 19.68 159.57C20.6548 160.884 21.6617 162.175 22.7 163.44C23.7381 164.705 24.801 165.947 25.9 167.16C26.999 168.373 28.1328 169.553 29.29 170.71C30.4472 171.867 31.6273 173.001 32.84 174.1C34.0527 175.199 35.295 176.262 36.56 177.3C37.825 178.338 39.1155 179.345 40.43 180.32C41.7445 181.295 43.0793 182.241 44.44 183.15C45.8007 184.059 47.1863 184.929 48.59 185.77C49.9937 186.611 51.4166 187.419 52.86 188.19C54.3034 188.961 55.7605 189.7 57.24 190.4C58.7195 191.1 60.2181 191.764 61.73 192.39C63.2419 193.016 64.7692 193.599 66.31 194.15C67.851 194.701 69.404 195.215 70.97 195.69C72.5362 196.165 74.1125 196.602 75.7 197C77.2875 197.396 78.8847 197.762 80.49 198.08C82.0951 198.398 83.7111 198.68 85.33 198.92C86.9489 199.16 88.5713 199.36 90.2 199.52C91.8287 199.682 93.4554 199.8 95.09 199.88C96.7246 199.96 98.3635 200 100 200C101.637 200 103.275 199.96 104.91 199.88C106.545 199.8 108.171 199.682 109.8 199.52C111.429 199.36 113.051 199.16 114.67 198.92C116.289 198.68 117.905 198.398 119.51 198.08C121.115 197.762 122.713 197.396 124.3 197C125.887 196.602 127.464 196.165 129.03 195.69C130.596 195.215 132.149 194.701 133.69 194.15C135.231 193.599 136.758 193.016 138.27 192.39C139.782 191.764 141.281 191.1 142.76 190.4C144.239 189.7 145.697 188.961 147.14 188.19C148.583 187.419 150.006 186.611 151.41 185.77C152.814 184.929 154.199 184.059 155.56 183.15C156.921 182.241 158.255 181.295 159.57 180.32C160.884 179.345 162.175 178.338 163.44 177.3C164.705 176.262 165.947 175.199 167.16 174.1C168.373 173.001 169.553 171.867 170.71 170.71C171.867 169.553 173.001 168.373 174.1 167.16C175.199 165.947 176.262 164.705 177.3 163.44C178.338 162.175 179.345 160.884 180.32 159.57C181.295 158.255 182.241 156.921 183.15 155.56C184.059 154.199 184.929 152.814 185.77 151.41C186.611 150.006 187.419 148.583 188.19 147.14C188.961 145.697 189.7 144.239 190.4 142.76C191.1 141.281 191.764 139.782 192.39 138.27C193.016 136.758 193.599 135.231 194.15 133.69C194.701 132.149 195.215 130.596 195.69 129.03C196.165 127.464 196.602 125.887 197 124.3C197.396 122.713 197.762 121.115 198.08 119.51C198.398 117.905 198.68 116.289 198.92 114.67C199.16 113.051 199.36 111.429 199.52 109.8C199.682 108.171 199.8 106.545 199.88 104.91C199.96 103.275 200 101.637 200 100C200 98.3635 199.96 96.7246 199.88 95.09C199.8 93.4554 199.682 91.8287 199.52 90.2C199.36 88.5713 199.16 86.9489 198.92 85.33C198.68 83.7111 198.398 82.0951 198.08 80.49C197.762 78.8847 197.396 77.2875 197 75.7C196.602 74.1125 196.165 72.5362 195.69 70.97C195.215 69.404 194.701 67.851 194.15 66.31C193.599 64.7692 193.016 63.2419 192.39 61.73C191.764 60.2181 191.1 58.7195 190.4 57.24C189.7 55.7605 188.961 54.3034 188.19 52.86C187.419 51.4166 186.611 49.9937 185.77 48.59C184.929 47.1863 184.059 45.8007 183.15 44.44C182.241 43.0793 181.295 41.7445 180.32 40.43C179.345 39.1155 178.338 37.825 177.3 36.56C176.262 35.295 175.199 34.0527 174.1 32.84C173.001 31.6273 171.867 30.4472 170.71 29.29C169.553 28.1328 168.373 26.999 167.16 25.9C165.947 24.801 164.705 23.7381 163.44 22.7C162.175 21.6617 160.884 20.6548 159.57 19.68C158.255 18.7051 156.921 17.7592 155.56 16.85C154.199 15.9408 152.814 15.0714 151.41 14.23C150.006 13.3886 148.583 12.5815 147.14 11.81C145.697 11.0385 144.239 10.2997 142.76 9.6C141.281 8.90027 139.782 8.23629 138.27 7.61C136.758 6.98371 135.231 6.40135 133.69 5.85C132.149 5.29865 130.596 4.78508 129.03 4.31C127.464 3.83494 125.887 3.39766 124.3 3C122.713 2.60234 121.115 2.23927 119.51 1.92C117.905 1.60072 116.289 1.32013 114.67 1.08C113.051 0.839865 111.429 0.640412 109.8 0.48C108.171 0.319588 106.545 0.200304 104.91 0.12C103.275 0.0396971 101.637 0 100 0ZM150.14 89.88C150.019 90.0732 149.895 90.2698 149.77 90.46C149.645 90.6502 149.519 90.8327 149.39 91.02C149.261 91.2073 149.133 91.3958 149 91.58C148.867 91.7644 148.728 91.9489 148.59 92.13C148.452 92.3111 148.312 92.4921 148.17 92.67C148.028 92.8479 147.886 93.0154 147.74 93.19C147.594 93.3648 147.45 93.5387 147.3 93.71C147.15 93.8813 146.994 94.0522 146.84 94.22C146.686 94.3878 146.528 94.5557 146.37 94.72C146.213 94.8843 146.061 95.0495 145.9 95.21C145.739 95.3705 145.575 95.5232 145.41 95.68C145.245 95.8368 145.078 95.9971 144.91 96.15C144.741 96.3029 144.572 96.451 144.4 96.6C144.228 96.749 144.055 96.8949 143.88 97.04C143.705 97.1851 143.529 97.3292 143.35 97.47C143.171 97.611 142.982 97.7531 142.8 97.89C142.618 98.0267 142.435 98.1574 142.25 98.29C142.065 98.4226 141.888 98.5517 141.7 98.68C141.512 98.8083 141.321 98.936 141.13 99.06C140.939 99.184 140.744 99.3105 140.55 99.43C140.356 99.5497 140.166 99.665 139.97 99.78C139.774 99.895 139.569 100.009 139.37 100.12C139.171 100.23 138.971 100.334 138.77 100.44C138.569 100.546 138.374 100.649 138.17 100.75C137.966 100.851 137.756 100.953 137.55 101.05C137.344 101.146 137.138 101.238 136.93 101.33C136.722 101.422 136.51 101.513 136.3 101.6C136.09 101.687 135.882 101.768 135.67 101.85C135.458 101.932 135.244 102.013 135.03 102.09C134.816 102.167 134.596 102.248 134.38 102.32C134.164 102.392 133.947 102.463 133.73 102.53C133.513 102.597 133.299 102.658 133.08 102.72C132.694 102.846 132.304 102.953 131.91 103.05C131.516 103.147 131.12 103.233 130.72 103.3C130.32 103.367 129.914 103.413 129.51 103.45C129.106 103.487 128.705 103.52 128.3 103.52C128.207 103.52 128.112 103.51 128.02 103.51C127.927 103.51 127.842 103.49 127.75 103.49C127.658 103.49 127.562 103.464 127.47 103.45C127.378 103.436 127.291 103.429 127.2 103.41C127.109 103.391 127.02 103.363 126.93 103.34C126.84 103.317 126.748 103.297 126.66 103.27C126.572 103.243 126.487 103.212 126.4 103.18C126.313 103.149 126.225 103.116 126.14 103.08C126.055 103.044 125.963 103 125.88 102.96C125.796 102.92 125.721 102.884 125.64 102.84C125.559 102.796 125.469 102.748 125.39 102.7C125.311 102.652 125.237 102.602 125.16 102.55C125.083 102.498 125.004 102.445 124.93 102.39C124.856 102.335 124.791 102.279 124.72 102.22C124.649 102.161 124.579 102.102 124.51 102.04C124.442 101.978 124.375 101.906 124.31 101.84C124.245 101.774 124.172 101.709 124.11 101.64C124.048 101.571 123.989 101.502 123.93 101.43C123.872 101.358 123.815 101.284 123.76 101.21C123.705 101.136 123.651 101.067 123.6 100.99C123.549 100.913 123.507 100.829 123.46 100.75C123.413 100.671 123.364 100.592 123.32 100.51C123.276 100.428 123.229 100.344 123.19 100.26C123.151 100.176 123.115 100.096 123.08 100.01C123.045 99.9245 123.011 99.8373 122.98 99.75C122.949 99.6627 122.927 99.5687 122.9 99.48C122.873 99.3913 122.842 99.3098 122.82 99.22C122.798 99.1302 122.778 99.0308 122.76 98.94C122.742 98.8492 122.723 98.7616 122.71 98.67C122.697 98.5784 122.68 98.4822 122.68 98.39C122.68 98.298 122.66 98.2126 122.66 98.12C122.66 98.0276 122.65 97.9326 122.65 97.84C122.65 97.7472 122.66 97.6524 122.66 97.56C122.66 97.4674 122.68 97.382 122.68 97.29C122.68 97.1978 122.697 97.1016 122.71 97.01C122.723 96.9184 122.742 96.8308 122.76 96.74C122.778 96.6492 122.798 96.5498 122.82 96.46C122.842 96.3702 122.873 96.2887 122.9 96.2C122.927 96.1113 122.949 96.0173 122.98 95.93C123.011 95.8427 123.045 95.7555 123.08 95.67C123.115 95.5843 123.151 95.5038 123.19 95.42C123.229 95.3362 123.276 95.2518 123.32 95.17C123.364 95.0882 123.413 95.0095 123.46 94.93C123.507 94.8505 123.549 94.7672 123.6 94.69C123.651 94.6129 123.705 94.5444 123.76 94.47C123.815 94.3956 123.872 94.3217 123.93 94.25C123.989 94.1783 124.048 94.1089 124.11 94.04C124.172 93.9713 124.245 93.9056 124.31 93.84C124.375 93.7742 124.442 93.7023 124.51 93.64C124.579 93.5777 124.649 93.519 124.72 93.46C124.791 93.401 124.856 93.3455 124.93 93.29C125.004 93.2345 125.083 93.1818 125.16 93.13C125.237 93.0782 125.311 93.0279 125.39 92.98C125.469 92.9322 125.559 92.8839 125.64 92.84C125.721 92.7961 125.796 92.76 125.88 92.72C125.963 92.68 126.055 92.6357 126.14 92.6C126.225 92.5643 126.313 92.5314 126.4 92.5C126.487 92.4684 126.572 92.4373 126.66 92.41C126.748 92.3829 126.84 92.363 126.93 92.34C127.02 92.3171 127.109 92.2886 127.2 92.27C127.291 92.2514 127.378 92.2441 127.47 92.23C127.562 92.2159 127.658 92.19 127.75 92.19C127.842 92.19 127.927 92.17 128.02 92.17C128.112 92.17 128.207 92.16 128.3 92.16C128.408 92.16 128.513 92.15 128.62 92.15C128.727 92.15 128.834 92.1301 128.94 92.11C129.046 92.0899 129.157 92.0611 129.26 92.03C129.363 91.9987 129.461 91.962 129.56 91.92C129.7 91.885 129.841 91.8483 129.98 91.81C130.119 91.7717 130.262 91.7316 130.4 91.69C130.538 91.6484 130.673 91.6049 130.81 91.56C130.947 91.5149 131.084 91.4682 131.22 91.42C131.356 91.3716 131.495 91.3216 131.63 91.27C131.765 91.2182 131.896 91.1649 132.03 91.11C132.164 91.0551 132.298 90.998 132.43 90.94C132.562 90.8818 132.699 90.8213 132.83 90.76C132.961 90.6987 133.091 90.6345 133.22 90.57C133.349 90.5053 133.472 90.4376 133.6 90.37C133.728 90.3024 133.854 90.2407 133.98 90.17C134.106 90.0993 134.236 90.0238 134.36 89.95C134.484 89.8764 134.608 89.7968 134.73 89.72C134.853 89.6432 134.979 89.5697 135.1 89.49C135.221 89.4103 135.331 89.3326 135.45 89.25C135.569 89.1674 135.693 89.0755 135.81 88.99C135.927 88.9046 136.035 88.8183 136.15 88.73C136.265 88.6417 136.378 88.561 136.49 88.47C136.602 88.3788 136.72 88.2836 136.83 88.19C136.94 88.0963 137.052 87.9965 137.16 87.9C137.268 87.8037 137.375 87.709 137.48 87.61C137.585 87.511 137.687 87.4116 137.79 87.31C137.893 87.2086 137.989 87.1041 138.09 87C138.191 86.8959 138.292 86.7864 138.39 86.68C138.488 86.5736 138.585 86.4688 138.68 86.36C138.775 86.2512 138.867 86.1411 138.96 86.03C139.053 85.9189 139.15 85.8131 139.24 85.7C139.33 85.5867 139.413 85.4654 139.5 85.35C139.587 85.2346 139.676 85.1174 139.76 85C139.844 84.8826 139.929 84.7695 140.01 84.65C140.091 84.5305 140.171 84.4113 140.25 84.29C140.329 84.1685 140.404 84.0432 140.48 83.92C140.657 83.6305 140.824 83.331 140.98 83.03C141.137 82.729 141.285 82.4311 141.42 82.12C141.555 81.8089 141.676 81.4897 141.79 81.17C141.903 80.8503 142.009 80.5268 142.1 80.2C142.191 79.8732 142.272 79.5422 142.34 79.21C142.408 78.8778 142.465 78.5463 142.51 78.21C142.555 77.8739 142.588 77.5385 142.61 77.2C142.632 76.8615 142.64 76.5193 142.64 76.18C142.64 67.1999 134.34 59.8 124.22 59.8C123.784 59.8 123.345 59.8113 122.91 59.84C122.475 59.8685 122.052 59.9139 121.62 59.97C121.188 60.0261 120.758 60.0966 120.33 60.18C119.902 60.2634 119.471 60.3596 119.05 60.47C118.629 60.5804 118.213 60.7031 117.8 60.84C117.387 60.9769 116.974 61.1271 116.57 61.29C116.166 61.4529 115.773 61.6317 115.38 61.82C114.987 62.0081 114.6 62.2073 114.22 62.42C114.064 62.5024 113.904 62.5923 113.75 62.68C113.596 62.7675 113.451 62.8574 113.3 62.95C113.149 63.0428 112.997 63.1325 112.85 63.23C112.703 63.3275 112.554 63.4275 112.41 63.53C112.266 63.6323 112.131 63.7328 111.99 63.84C111.849 63.9472 111.707 64.0583 111.57 64.17C111.433 64.2817 111.293 64.4038 111.16 64.52C111.027 64.6362 110.899 64.7495 110.77 64.87C110.641 64.9905 110.515 65.1152 110.39 65.24C110.265 65.3648 110.141 65.4913 110.02 65.62C109.899 65.7489 109.777 65.877 109.66 66.01C109.543 66.1428 109.432 66.2835 109.32 66.42C109.208 66.5567 109.098 66.6898 108.99 66.83C108.882 66.9704 108.773 67.1162 108.67 67.26C108.567 67.4037 108.468 67.5429 108.37 67.69C108.272 67.8371 108.173 67.9898 108.08 68.14C107.987 68.2904 107.898 68.4467 107.81 68.6C107.722 68.7533 107.633 68.9039 107.55 69.06C107.467 69.2161 107.388 69.3712 107.31 69.53C107.232 69.6888 107.153 69.8487 107.08 70.01C107.008 70.1713 106.937 70.3365 106.87 70.5C106.803 70.6637 106.742 70.8242 106.68 70.99C106.618 71.1558 106.556 71.3222 106.5 71.49C106.444 71.6578 106.391 71.8305 106.34 72C106.289 72.1695 106.245 72.3391 106.2 72.51C106.155 72.6811 106.109 72.8575 106.07 73.03C106.031 73.2025 106.003 73.3764 105.97 73.55C105.937 73.7236 105.898 73.8952 105.87 74.07C105.842 74.2446 105.822 74.4144 105.8 74.59C105.778 74.7656 105.756 74.944 105.74 75.12C105.724 75.2962 105.71 75.4732 105.7 75.65C105.69 75.8266 105.68 76.0032 105.68 76.18L105.68 123.88C105.68 124.18 105.673 124.48 105.66 124.78C105.647 125.08 105.623 125.381 105.6 125.68C105.577 125.979 105.553 126.282 105.52 126.58C105.487 126.878 105.443 127.173 105.4 127.47C105.357 127.767 105.313 128.064 105.26 128.36C105.207 128.656 105.153 128.946 105.09 129.24C105.027 129.534 104.952 129.829 104.88 130.12C104.808 130.411 104.732 130.701 104.65 130.99C104.568 131.279 104.482 131.564 104.39 131.85C104.298 132.136 104.201 132.417 104.1 132.7C103.999 132.983 103.9 133.271 103.79 133.55C103.68 133.829 103.56 134.105 103.44 134.38C103.32 134.655 103.199 134.929 103.07 135.2C102.941 135.471 102.808 135.743 102.67 136.01C102.532 136.277 102.386 136.538 102.24 136.8C102.094 137.062 101.945 137.323 101.79 137.58C101.635 137.837 101.474 138.088 101.31 138.34C101.146 138.592 100.982 138.844 100.81 139.09C100.638 139.336 100.46 139.58 100.28 139.82C100.1 140.06 99.9179 140.296 99.73 140.53C99.5421 140.764 99.3457 140.992 99.15 141.22C98.9545 141.448 98.7531 141.669 98.55 141.89C98.3469 142.111 98.1404 142.336 97.93 142.55C97.7197 142.764 97.5074 142.973 97.29 143.18C97.0726 143.387 96.854 143.59 96.63 143.79C96.4058 143.99 96.1807 144.188 95.95 144.38C95.7193 144.572 95.4869 144.756 95.25 144.94C95.0131 145.124 94.773 145.304 94.53 145.48C94.287 145.656 94.0386 145.832 93.79 146C93.5414 146.168 93.2941 146.33 93.04 146.49C92.7859 146.65 92.5294 146.809 92.27 146.96C92.0106 147.111 91.7443 147.257 91.48 147.4C91.1845 147.566 90.8908 147.724 90.59 147.88C90.2894 148.036 89.9857 148.193 89.68 148.34C89.3743 148.486 89.0603 148.623 88.75 148.76C88.4397 148.897 88.1345 149.034 87.82 149.16C87.5053 149.286 87.1886 149.404 86.87 149.52C86.5514 149.636 86.2221 149.745 85.9 149.85C85.5779 149.956 85.2554 150.055 84.93 150.15C84.6046 150.245 84.2783 150.336 83.95 150.42C83.6217 150.504 83.2909 150.586 82.96 150.66C82.6289 150.734 82.303 150.797 81.97 150.86C81.6368 150.923 81.305 150.978 80.97 151.03C80.635 151.082 80.2965 151.129 79.96 151.17C79.6235 151.211 79.2877 151.25 78.95 151.28C78.6123 151.31 78.2685 151.331 77.93 151.35C77.5915 151.369 77.2589 151.39 76.92 151.39C76.5811 151.39 76.2389 151.4 75.9 151.4C59.4199 151.4 45.9 139 45.9 123.66C45.9 123.361 45.9081 123.059 45.92 122.76C45.9319 122.461 45.9481 122.168 45.97 121.87C45.9921 121.572 46.0182 121.277 46.05 120.98C46.082 120.683 46.118 120.386 46.16 120.09C46.202 119.794 46.248 119.494 46.3 119.2C46.352 118.906 46.4081 118.612 46.47 118.32C46.5319 118.027 46.6083 117.73 46.68 117.44C46.7517 117.15 46.8186 116.868 46.9 116.58C46.9814 116.292 47.069 116.005 47.16 115.72C47.2512 115.435 47.3494 115.152 47.45 114.87C47.5506 114.589 47.66 114.308 47.77 114.03C47.88 113.752 47.9907 113.474 48.11 113.2C48.2293 112.926 48.3515 112.66 48.48 112.39C48.6085 112.12 48.7423 111.845 48.88 111.58C49.0175 111.315 49.1637 111.051 49.31 110.79C49.4565 110.529 49.6049 110.276 49.76 110.02C49.8805 109.827 50.0052 109.63 50.13 109.44C50.2548 109.25 50.3809 109.067 50.51 108.88C50.6391 108.693 50.7666 108.504 50.9 108.32C51.0334 108.136 51.1723 107.951 51.31 107.77C51.4477 107.589 51.5882 107.408 51.73 107.23C51.8718 107.052 52.0141 106.885 52.16 106.71C52.3057 106.535 52.4502 106.361 52.6 106.19C52.7498 106.019 52.9063 105.848 53.06 105.68C53.2137 105.512 53.3724 105.344 53.53 105.18C53.6874 105.016 53.8387 104.851 54 104.69C54.1611 104.53 54.3252 104.377 54.49 104.22C54.655 104.063 54.8214 103.903 54.99 103.75C55.1584 103.597 55.3279 103.449 55.5 103.3C55.6719 103.151 55.8448 103.005 56.02 102.86C56.1954 102.715 56.3715 102.571 56.55 102.43C56.7287 102.289 56.9182 102.147 57.1 102.01C57.2818 101.873 57.465 101.743 57.65 101.61C57.835 101.477 58.0121 101.348 58.2 101.22C58.3879 101.092 58.5792 100.964 58.77 100.84C58.9608 100.716 59.1564 100.59 59.35 100.47C59.5436 100.35 59.7337 100.235 59.93 100.12C60.1263 100.005 60.331 99.8904 60.53 99.78C60.7288 99.6695 60.9286 99.5661 61.13 99.46C61.3314 99.3541 61.5263 99.2514 61.73 99.15C61.9337 99.0488 62.1439 98.9467 62.35 98.85C62.5561 98.7535 62.7618 98.6618 62.97 98.57C63.1782 98.4782 63.3896 98.3869 63.6 98.3C63.8102 98.2131 64.0177 98.132 64.23 98.05C64.4423 97.9678 64.6561 97.8871 64.87 97.81C65.0841 97.7328 65.3042 97.6523 65.52 97.58C65.7358 97.5077 65.9526 97.4374 66.17 97.37C66.3874 97.3026 66.6011 97.2423 66.82 97.18C67.2061 97.056 67.5961 96.9457 67.99 96.85C68.3839 96.7543 68.7802 96.677 69.18 96.61C69.58 96.543 69.9863 96.4879 70.39 96.45C70.7937 96.4123 71.1947 96.38 71.6 96.38C71.6934 96.38 71.7868 96.39 71.88 96.39C71.9732 96.39 72.067 96.4 72.16 96.4C72.2528 96.4 72.3476 96.4269 72.44 96.44C72.5324 96.4531 72.6184 96.4622 72.71 96.48C72.8016 96.4978 72.8994 96.5177 72.99 96.54C73.0806 96.5621 73.1705 96.5932 73.26 96.62C73.3495 96.6468 73.4321 96.6689 73.52 96.7C73.6081 96.7311 73.6937 96.7646 73.78 96.8C73.8665 96.8354 73.9554 96.8803 74.04 96.92C74.1246 96.9594 74.2076 96.9962 74.29 97.04C74.3726 97.0836 74.4497 97.1323 74.53 97.18C74.6103 97.2277 74.6923 97.2784 74.77 97.33C74.8477 97.3816 74.9248 97.4347 75 97.49C75.0752 97.5453 75.1475 97.601 75.22 97.66C75.2923 97.719 75.3607 97.7775 75.43 97.84C75.4993 97.9023 75.5738 97.9642 75.64 98.03C75.7062 98.0958 75.7671 98.1611 75.83 98.23C75.8929 98.2989 75.9506 98.3779 76.01 98.45C76.0694 98.5219 76.1343 98.5952 76.19 98.67C76.2457 98.7448 76.2979 98.8125 76.35 98.89C76.402 98.9675 76.4518 99.0501 76.5 99.13C76.548 99.2099 76.5959 99.2878 76.64 99.37C76.6841 99.4522 76.72 99.5358 76.76 99.62C76.8 99.7042 76.8443 99.7939 76.88 99.88C76.9159 99.9661 76.9486 100.052 76.98 100.14C77.0114 100.228 77.0429 100.321 77.07 100.41C77.0971 100.499 77.1173 100.58 77.14 100.67C77.1628 100.76 77.1818 100.858 77.2 100.95C77.2184 101.042 77.2363 101.128 77.25 101.22C77.2639 101.312 77.29 101.407 77.29 101.5C77.29 101.593 77.31 101.687 77.31 101.78C77.31 101.873 77.31 101.967 77.31 102.06C77.31 102.153 77.31 102.247 77.31 102.34C77.31 102.433 77.29 102.527 77.29 102.62C77.29 102.713 77.2639 102.808 77.25 102.9C77.2363 102.992 77.2184 103.078 77.2 103.17C77.1818 103.262 77.1628 103.36 77.14 103.45C77.1173 103.54 77.0971 103.621 77.07 103.71C77.0429 103.799 77.0114 103.892 76.98 103.98C76.9486 104.068 76.9159 104.154 76.88 104.24C76.8443 104.326 76.8 104.416 76.76 104.5C76.72 104.584 76.6841 104.668 76.64 104.75C76.5959 104.832 76.548 104.91 76.5 104.99C76.4518 105.07 76.402 105.152 76.35 105.23C76.2979 105.308 76.2457 105.375 76.19 105.45C76.1343 105.525 76.0694 105.598 76.01 105.67C75.9506 105.742 75.8929 105.821 75.83 105.89C75.7671 105.959 75.7062 106.024 75.64 106.09C75.5738 106.156 75.4993 106.217 75.43 106.28C75.3607 106.342 75.2923 106.401 75.22 106.46C75.1475 106.519 75.0752 106.575 75 106.63C74.9248 106.685 74.8477 106.738 74.77 106.79C74.6923 106.842 74.6103 106.892 74.53 106.94C74.4497 106.988 74.3726 107.036 74.29 107.08C74.2076 107.124 74.1246 107.17 74.04 107.21C73.9554 107.249 73.8665 107.285 73.78 107.32C73.6937 107.355 73.6081 107.389 73.52 107.42C73.4321 107.451 73.3495 107.473 73.26 107.5C73.1705 107.527 73.0806 107.558 72.99 107.58C72.8994 107.602 72.8016 107.622 72.71 107.64C72.6184 107.658 72.5324 107.667 72.44 107.68C72.3476 107.693 72.2528 107.72 72.16 107.72C72.067 107.72 71.9732 107.73 71.88 107.73C71.7868 107.73 71.6934 107.74 71.6 107.74C71.4922 107.74 71.3872 107.75 71.28 107.75C71.1726 107.75 71.0661 107.77 70.96 107.79C70.8541 107.81 70.7431 107.839 70.64 107.87C70.5369 107.901 70.4394 107.938 70.34 107.98C70.0613 108.055 69.785 108.132 69.51 108.22C69.2352 108.308 68.9605 108.41 68.69 108.51C68.4195 108.61 68.1558 108.717 67.89 108.83C67.6244 108.943 67.3602 109.055 67.1 109.18C66.8398 109.305 66.5841 109.433 66.33 109.57C66.0759 109.707 65.8177 109.852 65.57 110C65.3225 110.148 65.0804 110.3 64.84 110.46C64.5996 110.62 64.3628 110.789 64.13 110.96C63.8974 111.131 63.6748 111.309 63.45 111.49C63.2254 111.671 63.0062 111.859 62.79 112.05C62.574 112.241 62.357 112.429 62.15 112.63C61.943 112.831 61.7375 113.04 61.54 113.25C61.3425 113.46 61.1575 113.681 60.97 113.9C60.7823 114.119 60.5971 114.342 60.42 114.57C60.2427 114.798 60.0666 115.024 59.9 115.26C59.7334 115.496 59.5755 115.737 59.42 115.98C59.2429 116.269 59.0764 116.569 58.92 116.87C58.7634 117.171 58.6154 117.469 58.48 117.78C58.3447 118.091 58.2237 118.41 58.11 118.73C57.9965 119.05 57.8912 119.373 57.8 119.7C57.7088 120.027 57.6284 120.358 57.56 120.69C57.4916 121.022 57.4353 121.354 57.39 121.69C57.3449 122.026 57.3119 122.362 57.29 122.7C57.2681 123.039 57.26 123.381 57.26 123.72C57.26 132.7 65.56 140.1 75.8 140.1C76.2355 140.1 76.6754 140.089 77.11 140.06C77.5446 140.031 77.9782 139.986 78.41 139.93C78.8418 139.874 79.2625 139.803 79.69 139.72C80.1175 139.637 80.5487 139.54 80.97 139.43C81.3913 139.32 81.8065 139.197 82.22 139.06C82.6335 138.923 83.0461 138.773 83.45 138.61C83.8539 138.447 84.2472 138.268 84.64 138.08C85.0328 137.892 85.4199 137.693 85.8 137.48C85.9563 137.397 86.1065 137.308 86.26 137.22C86.4135 137.132 86.5696 137.043 86.72 136.95C86.8706 136.857 87.0227 136.768 87.17 136.67C87.3175 136.572 87.4561 136.473 87.6 136.37C87.7439 136.267 87.8896 136.157 88.03 136.05C88.1704 135.943 88.3131 135.832 88.45 135.72C88.5869 135.608 88.717 135.496 88.85 135.38C88.9832 135.264 89.1209 135.151 89.25 135.03C89.3791 134.909 89.5048 134.785 89.63 134.66C89.7552 134.535 89.8791 134.409 90 134.28C90.1209 134.151 90.2334 134.023 90.35 133.89C90.4666 133.757 90.5879 133.617 90.7 133.48C90.8119 133.343 90.9124 133.21 91.02 133.07C91.1276 132.93 91.2373 132.784 91.34 132.64C91.4429 132.496 91.542 132.347 91.64 132.2C91.7379 132.053 91.8368 131.91 91.93 131.76C92.023 131.61 92.1119 131.453 92.2 131.3C92.2881 131.147 92.3772 130.996 92.46 130.84C92.543 130.684 92.6225 130.519 92.7 130.36C92.7777 130.201 92.8475 130.041 92.92 129.88C92.9925 129.719 93.063 129.563 93.13 129.4C93.197 129.237 93.2585 129.066 93.32 128.9C93.3815 128.734 93.4439 128.568 93.5 128.4C93.5561 128.232 93.6096 128.069 93.66 127.9C93.7106 127.731 93.7553 127.561 93.8 127.39C93.8447 127.219 93.8909 127.042 93.93 126.87C93.9691 126.698 94.0066 126.524 94.04 126.35C94.0734 126.176 94.1025 126.005 94.13 125.83C94.1575 125.655 94.1783 125.486 94.2 125.31C94.2219 125.135 94.2442 124.956 94.26 124.78C94.276 124.604 94.2898 124.426 94.3 124.25C94.3 124.073 94.32 123.897 94.32 123.72L94.32 76.24C94.32 75.9394 94.3365 75.6402 94.35 75.34C94.3633 75.0398 94.3766 74.7396 94.4 74.44C94.4232 74.1404 94.4566 73.8386 94.49 73.54C94.5232 73.2414 94.5568 72.9475 94.6 72.65C94.6432 72.3525 94.6871 72.0557 94.74 71.76C94.7931 71.4641 94.8571 71.1637 94.92 70.87C94.9829 70.5761 95.0475 70.2916 95.12 70C95.1927 69.7084 95.2678 69.4189 95.35 69.13C95.4322 68.8409 95.5182 68.5461 95.61 68.26C95.7018 67.9739 95.7986 67.693 95.9 67.41C96.0014 67.127 96.1093 66.8493 96.22 66.57C96.3307 66.2905 96.4501 66.0056 96.57 65.73C96.6897 65.4544 96.8109 65.1813 96.94 64.91C97.0689 64.6385 97.2019 64.377 97.34 64.11C97.4779 63.843 97.6233 63.5723 97.77 63.31C97.9167 63.0477 98.0647 62.7872 98.22 62.53C98.3753 62.2728 98.5361 62.0218 98.7 61.77C98.8639 61.518 99.0279 61.2663 99.2 61.02C99.3721 60.7737 99.5497 60.5304 99.73 60.29C99.9103 60.0496 100.102 59.8144 100.29 59.58C100.478 59.3458 100.664 59.1179 100.86 58.89C101.056 58.6621 101.257 58.4313 101.46 58.21C101.663 57.9887 101.869 57.7745 102.08 57.56C102.291 57.3455 102.503 57.1372 102.72 56.93C102.938 56.7228 103.166 56.5198 103.39 56.32C103.614 56.12 103.839 55.9224 104.07 55.73C104.301 55.5376 104.533 55.3446 104.77 55.16C105.007 54.9754 105.247 54.7966 105.49 54.62C105.733 54.4432 105.981 54.2684 106.23 54.1C106.479 53.9314 106.726 53.77 106.98 53.61C107.234 53.45 107.49 53.2916 107.75 53.14C108.01 52.9886 108.276 52.8428 108.54 52.7C108.83 52.5264 109.124 52.3539 109.42 52.19C109.716 52.0263 110.009 51.8733 110.31 51.72C110.611 51.5665 110.924 51.413 111.23 51.27C111.536 51.1268 111.839 50.9924 112.15 50.86C112.461 50.7276 112.775 50.6017 113.09 50.48C113.405 50.3583 113.721 50.2407 114.04 50.13C114.359 50.0193 114.687 49.9098 115.01 49.81C115.333 49.7102 115.654 49.6185 115.98 49.53C116.306 49.4413 116.631 49.3573 116.96 49.28C117.289 49.2027 117.619 49.136 117.95 49.07C118.282 49.0038 118.617 48.9445 118.95 48.89C119.284 48.8353 119.615 48.7832 119.95 48.74C120.285 48.6968 120.623 48.6616 120.96 48.63C121.297 48.5984 121.632 48.5701 121.97 48.55C122.307 48.5301 122.652 48.51 122.99 48.51C123.328 48.51 123.662 48.5 124 48.5C140.48 48.5 154 60.9 154 76.24C154 76.539 153.992 76.8414 153.98 77.14C153.968 77.4388 153.952 77.732 153.93 78.03C153.908 78.3282 153.882 78.6327 153.85 78.93C153.818 79.2273 153.782 79.5241 153.74 79.82C153.698 80.1161 153.652 80.4057 153.6 80.7C153.548 80.9943 153.492 81.2876 153.43 81.58C153.368 81.8726 153.302 82.1698 153.23 82.46C153.158 82.7502 153.081 83.0323 153 83.32C152.919 83.6077 152.831 83.8952 152.74 84.18C152.649 84.4648 152.551 84.7486 152.45 85.03C152.349 85.3114 152.24 85.5921 152.13 85.87C152.02 86.1479 151.909 86.426 151.79 86.7C151.671 86.974 151.549 87.2401 151.42 87.51C151.291 87.7799 151.158 88.0546 151.02 88.32C150.882 88.5854 150.736 88.8493 150.59 89.11C150.444 89.3707 150.295 89.6243 150.14 89.88Z"   fill="#808080" ></path></svg>