<svg xmlns="http://www.w3.org/2000/svg" xmlns:xlink="http://www.w3.org/1999/xlink" width="230.2611083984375" height="75.20654296875" viewBox="0 0 230.2611083984375 75.20654296875" fill="none"><g ><g filter="url(#filter_27_8)"><path     fill="#FFFFFF"  d="M17.1791 11.072L17.2751 10.4L16.2191 9.248L23.5151 9.248L23.2591 11.072L32.3791 11.072L31.9311 14.432L22.7791 14.432L22.0431 19.584L30.5871 19.584L30.1071 22.944L21.5951 22.944L20.8271 28.384L30.5551 28.384L30.1071 31.744L4.57112 31.744L5.01912 28.384L14.7471 28.384L15.5151 22.944L7.00312 22.944L7.48312 19.584L15.9631 19.584L16.6991 14.432L7.61112 14.432L8.05912 11.072L17.1791 11.072ZM50.8751 15.936L49.1471 15.936L49.5951 12.896L51.6431 12.896L52.2831 10.336L51.3231 9.248L57.4031 9.248L56.5071 12.896L62.3631 12.896L59.9311 30.176Q59.7711 31.104 59.0671 31.696Q58.3631 32.288 57.4351 32.288L52.3471 32.288L55.1631 29.344L57.0511 15.936L55.7391 15.936L51.7071 32.288L46.8431 32.288L50.8751 15.936ZM46.1391 24.448L45.9471 32.288L41.0831 32.288L41.0831 31.424L33.4671 32.288L33.9151 29.312L36.9871 19.584L35.2591 19.584L35.7071 16.544L47.8671 16.544L47.4191 19.584L41.8511 19.584L38.9391 28.704L41.1791 28.448L41.2751 24.448L46.1391 24.448ZM48.0911 10.464L47.6751 13.504L36.7311 13.504L37.1471 10.464L48.0911 10.464ZM75.9311 12.8L72.9871 13.056L72.6351 15.712L76.0271 15.712L75.5791 18.976L72.1551 18.976L70.2991 32.288L66.0111 32.288L67.8671 18.976L64.3151 18.976L64.7631 15.712L68.3471 15.712L68.6671 13.44L65.2751 13.728L65.7231 10.464L76.3791 9.536L75.9311 12.8ZM83.7071 26.592L83.8031 29.152L84.6671 29.152L86.3311 25.088L80.5391 25.088L79.8031 26.752L75.2591 26.752L77.1471 22.304L76.4751 21.376L82.2031 21.376L81.7871 22.272L90.5231 22.272L89.8831 26.656L87.5151 32.224L74.4911 32.224L74.9071 29.152L80.4431 29.152L80.3151 26.592L83.7071 26.592ZM83.6751 10.496L92.1551 10.496L91.5471 14.88L89.1471 20.512L77.1791 20.512L77.6271 17.376L81.8831 17.376L81.7551 14.848L85.3071 14.848L85.4031 17.376L86.3311 17.376L87.9311 13.632L82.1711 13.632L81.6271 14.752L76.9231 14.752L79.1631 10.176L78.4911 9.28L84.2831 9.28L83.6751 10.496ZM71.1951 31.136L72.2831 19.872L75.1631 19.872L74.0751 31.136L71.1951 31.136ZM62.6191 31.136L64.6671 19.872L67.5471 19.872L65.4991 31.136L62.6191 31.136ZM109.755 15.936L108.027 15.936L108.475 12.896L110.523 12.896L111.163 10.336L110.203 9.248L116.283 9.248L115.387 12.896L121.243 12.896L118.811 30.176Q118.651 31.104 117.947 31.696Q117.243 32.288 116.315 32.288L111.227 32.288L114.043 29.344L115.931 15.936L114.619 15.936L110.587 32.288L105.723 32.288L109.755 15.936ZM105.019 24.448L104.827 32.288L99.9631 32.288L99.9631 31.424L92.3471 32.288L92.7951 29.312L95.8671 19.584L94.1391 19.584L94.5871 16.544L106.747 16.544L106.299 19.584L100.731 19.584L97.8191 28.704L100.059 28.448L100.155 24.448L105.019 24.448ZM106.971 10.464L106.555 13.504L95.6111 13.504L96.0271 10.464L106.971 10.464ZM150.075 13.056L148.763 16.384L150.235 16.384L149.627 20.704L148.603 20.704L148.091 24.352L142.875 27.968L148.059 32.224L141.947 32.224L139.579 30.272L136.699 32.256L130.651 32.224L136.923 28.032L133.595 25.216L133.755 24.064L138.171 24.064L140.251 25.792L143.291 23.744L143.387 23.008L132.987 23.008L133.307 20.704L132.443 20.704L133.051 16.384L134.619 16.384L134.267 13.056L138.203 13.056L138.587 16.384L139.899 16.384L139.547 13.056L143.483 13.056L143.867 16.384L144.795 16.384L146.139 13.056L150.075 13.056ZM125.947 13.376L126.395 10.24L125.595 9.312L131.419 9.312L130.843 13.376L133.179 13.376L132.763 16.224L130.427 16.224L129.915 20.064L132.187 19.424L131.707 22.752L129.435 23.392L128.507 30.144Q128.379 31.072 127.691 31.664Q127.003 32.256 126.075 32.256L121.595 32.256L123.707 29.376L124.347 24.8L122.331 25.344L122.811 21.984L124.795 21.44L125.531 16.224L123.611 16.224L124.027 13.376L125.947 13.376ZM150.459 12.352L133.755 12.512L134.171 9.696L150.875 9.472L150.459 12.352ZM136.699 20.096L145.435 20.096L145.563 19.2L136.827 19.2L136.699 20.096ZM177.339 23.52L176.187 31.744L159.163 31.744L160.315 23.52L177.339 23.52ZM160.315 12.896L157.563 32.288L151.771 32.288L154.363 14.08L152.475 14.432L152.987 10.784L160.827 9.248L160.315 12.896ZM167.419 11.68L167.611 10.464L166.587 9.248L173.883 9.248L173.531 11.68L179.611 11.68L179.195 14.72L160.955 14.72L161.371 11.68L167.419 11.68ZM177.883 19.584L177.467 22.624L160.443 22.624L160.859 19.584L177.883 19.584ZM177.851 15.648L177.403 18.656L161.595 18.656L162.043 15.648L177.851 15.648ZM170.811 28.704L171.131 26.56L165.691 26.56L165.371 28.704L170.811 28.704Z"></path><path fill-rule="evenodd"  fill="rgba(225, 195, 106, 1)"  d="M160.49,15.22l-2.493,17.568h-6.802l2.575,-18.0888l-1.887,0.3517l0.658,-4.6891l8.879,-1.73943l-0.359,2.55763h5.931l0.09,-0.5685l-1.57,-1.8635h8.949l-0.352,2.432h6.075l-0.553,4.04h-1.211l-0.074,0.5017l-0.501,3.3623h0.611l-0.078,0.5678l-0.475,3.4722h-0.004l-0.065,0.4654l-1.212,8.6546h-18.034l1.292,-9.224h0.004l0.539,-3.936h0.603l0.575,-3.864zM174.036,11.68h-0.505l0.072,-0.5l0.208,-1.432l0.072,-0.5h-7.296l0.421,0.5l0.603,0.716l-0.192,1.216h-6.048l-0.347,2.54l-0.069,0.5h18.24l0.348,-2.54l0.068,-0.5zM153.844,14.1767l0.519,-0.0967l-0.074,0.5225l-2.447,17.1855l-0.071,0.5h5.792l2.752,-19.392l0.439,-3.12409l0.073,-0.52391l-0.519,0.10172l-7.321,1.43428l-0.439,3.1257l-0.073,0.5223l0.519,-0.0967zM17.1791,11.072h-9.11998l-0.38134,2.86l-0.06666,0.5h9.08798l-0.0714,0.5l-0.6646,4.652h-8.47998l-0.40857,2.86l-0.07143,0.5h8.51198l-0.0706,0.5l-0.6974,4.94h-9.72798l-0.38134,2.86l-0.06666,0.5h25.53598l0.3814,-2.86l0.0666,-0.5h-9.728l0.0706,-0.5l0.6974,-4.94h8.512l0.4086,-2.86l0.0714,-0.5h-8.544l0.0714,-0.5l0.6646,-4.652h9.152l0.3814,-2.86l0.0666,-0.5h-9.12l0.0702,-0.5l0.1156,-0.824l0.0702,-0.5h-7.296l0.4584,0.5l0.5976,0.652zM16.7467,10.5635l-1.6642,-1.8155h9.0077l-0.256,1.824h9.116l-0.5813,4.36h-9.1561l-0.5932,4.152h8.544l-0.6228,4.36h-8.5113l-0.6268,4.44h9.7235l-0.5813,4.36h-26.54487l0.58133,-4.36h9.73134l0.6269,-4.44h-8.51299l0.62286,-4.36h8.48003l0.5931,-4.152h-9.08257l0.58133,-4.36h9.12414zM50.7518,16.436l-3.7854,15.352l-0.1233,0.5h4.864l0.018,-0.0731l4.014,-16.2789h1.312l-0.0704,0.5l-1.8176,12.908l-2.3377,2.444l-0.4783,0.5h5.088c0.61867,0 1.16267,-0.19733 1.632,-0.592c0.46933,-0.39467 0.75733,-0.90133 0.864,-1.52l2.3617,-16.78l0.0703,-0.5h-5.856l0.1228,-0.5l0.6504,-2.648l0.1228,-0.5h-6.08l0.4412,0.5l0.5188,0.588l-0.64,2.56h-2.048l-0.3743,2.54l-0.0737,0.5h1.728zM50.2369,16.436h-1.6689l0.5954,-4.04h2.0893l0.4816,-1.9263l-1.5192,-1.7217h7.8257l-0.896,3.648h5.7936l-2.5132,17.8573l-0.0013,0.0077c-0.1274,0.73873 -0.4724,1.34463 -1.035,1.8177c-0.56233,0.47287 -1.2136,0.7093 -1.9538,0.7093h-16.852v-0.8041l-7.7075,0.8744l0.5509,-3.6595l2.8784,-9.1148h-1.6249l0.5954,-4.04h13.1708l-0.5954,4.04h-5.6345l-1.2337,3.864h5.6689l-0.0125,0.5122l-0.1786,7.2914zM40.7711,24.6104l-1.1205,3.509l1.0391,-0.1187zM41.1791,28.448l-1.6952,0.1937l-0.5448,0.0623l0.1668,-0.5223l2.7452,-8.5977h5.568l0.3743,-2.54l0.0737,-0.5h-12.16l-0.3743,2.54l-0.0737,0.5h1.728l-0.1579,0.5l-2.9141,9.228l-0.3709,2.464l-0.0771,0.512l0.5144,-0.0584l6.6016,-0.7489l0.5,-0.0567v0.864h4.864l0.1798,-7.34l0.0122,-0.5h-4.864zM52.419,31.4895l2.2715,-2.3747l1.7853,-12.6788h-0.345zM109.632,16.436l-3.786,15.352l-0.123,0.5h4.864l0.018,-0.0731l4.014,-16.2789h1.312l-0.07,0.5l-1.818,12.908l-2.338,2.444l-0.478,0.5h5.088c0.61867,0 1.16267,-0.19733 1.632,-0.592c0.46933,-0.39467 0.75733,-0.90133 0.864,-1.52l2.362,-16.78l0.07,-0.5h-5.856l0.123,-0.5l0.65,-2.648l0.123,-0.5h-6.08l0.441,0.5l0.519,0.588l-0.64,2.56h-2.048l-0.374,2.54l-0.074,0.5h1.728zM109.117,16.436h-1.669l0.595,-4.04h2.09l0.481,-1.9263l-1.519,-1.7217h7.826l-0.896,3.648h5.793l-2.513,17.8573l-0.001,0.0077c-0.12733,0.73873 -0.47233,1.34463 -1.035,1.8177c-0.56267,0.47287 -1.214,0.7093 -1.954,0.7093h-16.8519v-0.8041l-7.7075,0.8744l0.5509,-3.6595l2.8784,-9.1148h-1.6249l0.5954,-4.04h13.1706l-0.595,4.04h-5.635l-1.2334,3.864h5.6694l-0.013,0.5122l-0.179,7.2914zM99.6511,24.6104l-1.1205,3.509l1.0391,-0.1187zM100.059,28.448l-1.6951,0.1937l-0.5448,0.0623l0.1668,-0.5223l2.7451,-8.5977h5.568l0.374,-2.54l0.074,-0.5h-12.1599l-0.3743,2.54l-0.0737,0.5h1.728l-0.1579,0.5l-2.9141,9.228l-0.3709,2.464l-0.0771,0.512l0.5144,-0.0584l6.6016,-0.7489l0.5,-0.0567v0.864h4.8639l0.18,-7.34l0.012,-0.5h-4.864zM111.299,31.4895l2.271,-2.3747l1.786,-12.6788h-0.345zM84.2341,10.496h-0.559l0.25,-0.5l0.108,-0.216l0.25,-0.5h-5.792l0.375,0.5l0.297,0.396l-1.9952,4.076l-0.2448,0.5h4.704l0.1962,-0.404l0.3478,-0.716h5.76l-0.2137,0.5l-1.3863,3.244h-0.928l-0.096,-2.528h-3.552l0.0205,0.404l0.0048,0.096l0.0774,1.528l0.0253,0.5h-4.256l-0.3766,2.636l-0.0714,0.5h11.968l2.4,-5.632l0.5387,-3.884l0.0693,-0.5zM84.4841,9.996h8.2451l-0.696,5.0187l-2.5556,5.9973h-6.5542l-0.3529,0.76h8.5309l-0.7329,5.0202l-2.5227,5.9318h-13.927l0.1474,-1.088h-3.1713l-0.1607,1.152h-5.2976l0.1606,-1.152h-3.5772l0.1072,-0.5894l2.1037,-11.5706h-0.4891l0.5853,-4.264h3.5855l0.1719,-1.2207l-3.3897,0.2878l0.5872,-4.2786l11.6776,-1.01695l-0.5874,4.27995l-0.3978,0.0346l-2.5443,0.2213l-0.2243,1.6926h2.9355l2.4382,-4.9809l-1.0884,-1.4511h7.601zM76.5949,15.252l-0.5797,4.224h-0.3115l-0.1352,1.4h1.0535l0.5715,-4h4.1637l-0.0823,-1.624zM75.5599,20.9646l-0.4751,4.9183l1.4917,-3.5143zM77.1471,22.304l-1.6758,3.948l-0.2122,0.5h4.544l0.0174,-0.0394l0.2745,-0.6206l0.4441,-1.004h5.792l-0.2047,0.5l-1.4593,3.564h-0.864l-0.096,-2.56h-3.392l0.0107,0.2143l0.0143,0.2857l0.078,1.56l0.025,0.5h-5.536l-0.3483,2.572l-0.0677,0.5h13.024l2.368,-5.568l0.567,-3.884l0.073,-0.5h-8.736l0.1839,-0.396l0.0483,-0.104l0.1838,-0.396h-5.728l0.3621,0.5zM79.9175,28.652l-0.07,-1.4h-4.8949l-0.1352,1.4zM80.6418,26.092h3.5469l0.0181,0.4813l0.0779,2.0787h0.0469l1.2545,-3.064h-4.7214zM72.1551,18.976h3.424l0.3794,-2.764l0.0686,-0.5h-3.392l0.0663,-0.5l0.2857,-2.156l2.944,-0.256l0.3783,-2.756l0.0697,-0.508l-0.5108,0.04448l-10.1452,0.88352l-0.3783,2.7563l-0.0697,0.5077l0.5107,-0.0434l2.3703,-0.2012l0.511,-0.0434l-0.0715,0.5079l-0.2485,1.7641h-3.584l-0.3794,2.764l-0.0686,0.5h3.552l-0.0552,0.396l-0.0145,0.104l-1.7166,12.312l-0.0697,0.5h4.288l0.9193,-6.5932l0.8815,-6.3228zM67.0389,19.872h-2.3718l-1.9571,10.764l-0.0909,0.5h2.88l0.7196,-3.9575l1.2375,-6.8065l0.0909,-0.5zM72.535,19.872h-0.2519l-0.5681,5.8814l-0.4716,4.8826l-0.0483,0.5h2.88l1.0397,-10.764l0.0483,-0.5zM82.3792,14.348h3.4093l0.096,2.528h0.1165l1.1727,-2.744h-4.6896zM125.947,13.376h-1.92l-0.343,2.348l-0.073,0.5h1.92l-0.07,0.5l-0.666,4.716l-1.984,0.544l-0.403,2.8214l-0.077,0.5386l0.525,-0.1418l0.966,-0.2606l0.525,-0.1416l-0.075,0.5382l-0.565,4.0378l-1.745,2.38l-0.367,0.5h4.48c0.61867,0 1.15733,-0.19733 1.616,-0.592c0.45867,-0.39467 0.73067,-0.90133 0.816,-1.52l0.928,-6.752l2.272,-0.64l0.223,-1.548l0.179,-1.2385l0.078,-0.5415l-0.072,0.0202l-0.454,0.1281l-1.222,0.3441l-0.524,0.1476l0.072,-0.5397l0.44,-3.3003h2.336l0.05,-0.34l0.293,-2.008l0.073,-0.5h-2.336l0.071,-0.5l0.434,-3.064l0.071,-0.5h-5.824l0.431,0.5l0.369,0.428zM125.868,10.3943l-1.364,-1.5823h7.491l-0.576,4.064h1.777l0.543,-3.67425l17.715,-0.23755l-0.561,3.8837l-0.199,0.0019l-0.154,0.3896l-1.042,2.6446h1.312l-0.748,5.32h-1.024l-0.482,3.4342l-4.852,3.3635l5.752,4.7223h-7.688l-2.216,-1.8263l-2.699,1.8591l-7.837,-0.0414l7.078,-4.7304l-3.032,-2.5651l0.258,-1.8559h5.032l1.93,1.604l2.465,-1.66h-10.334l0.32,-2.304h-0.297l-0.28,1.9411l-2.27,0.6394l-0.884,6.4276c-0.102,0.74373 -0.43033,1.35403 -0.985,1.8309c-0.552,0.47533 -1.19933,0.713 -1.942,0.713h-5.467l2.621,-3.5741l0.518,-3.7021l-2.018,0.5446l0.634,-4.4359l1.983,-0.5438l0.61,-4.3207h-1.923l0.562,-3.848h1.918zM132.948,20.704h0.359l-0.069,0.5l-0.181,1.304l-0.07,0.5h10.4l-0.065,0.5l-0.031,0.236l-3.04,2.048l-2.08,-1.728h-4.416l-0.16,1.152l2.931,2.48l0.397,0.336l-0.432,0.289l-5.098,3.4069l-0.742,0.4961l0.893,0.0047l5.155,0.0273l2.88,-1.984l2.368,1.952h6.112l-0.609,-0.5l-4.173,-3.4261l-0.402,-0.3299l0.427,-0.2962l4.789,-3.3198l0.512,-3.648h1.024l0.538,-3.82l0.07,-0.5h-1.472l0.197,-0.5l0.918,-2.328l0.197,-0.5h-3.936l-1.344,3.328h-0.928l-0.384,-3.328h-3.936l0.053,0.5l0.246,2.328l0.053,0.5h-1.312l-0.384,-3.328h-3.936l0.053,0.5l0.246,2.328l0.053,0.5h-1.568l-0.048,0.34l-0.286,2.0312l-0.204,1.4488l-0.07,0.5zM132.192,18.9033l0.306,-2.1793h-1.633l-0.354,2.6526zM134.063,15.884l-0.303,-2.872l-0.022,0.0002l-0.42,2.8718zM138.696,12.9647l0.337,2.9193h0.31l-0.309,-2.9225zM143.97,12.9142l0.343,2.9698h0.145l1.206,-2.986zM134.261,12.5072l16.198,-0.1552l0.344,-2.37898l0.072,-0.50102l-0.506,0.00679l-16.198,0.21721l-0.342,2.3153l-0.074,0.5007zM36.158,14.004l0.5529,-4.04h11.9533l-0.0777,0.5678l-0.4751,3.4722zM95.038,14.004l0.5529,-4.04h11.9531l-0.078,0.5678l-0.475,3.4722zM47.5865,10.464h-10.4394l-0.3476,2.54l-0.0684,0.5h10.944l0.3476,-2.54l0.0684,-0.5zM106.466,10.464h-10.4389l-0.3476,2.54l-0.0684,0.5h10.9439l0.348,-2.54l0.068,-0.5zM177.346,15.648h-15.303l-0.373,2.508l-0.075,0.5h15.808l0.374,-2.508l0.074,-0.5zM137.204,20.096h-0.505l0.072,-0.5l0.056,-0.396h8.736l-0.071,0.5l-0.057,0.396zM177.378,19.584h-16.519l-0.347,2.54l-0.069,0.5h17.024l0.348,-2.54l0.068,-0.5zM176.834,23.52h-16.519l-1.082,7.724l-0.07,0.5h17.024l1.082,-7.724l0.07,-0.5zM170.811,28.704h-5.44l0.075,-0.5l0.245,-1.644h5.44l-0.075,0.5zM170.551,27.06h-4.429l-0.171,1.144h4.429z"></path></g></g><g ><g filter="url(#filter_27_9)"><path     fill="#FFFFFF"  d="M75.5131 68.1L73.7771 68.1L73.7771 63.396L70.3051 63.396L70.3051 68.1L68.5691 68.1L68.5691 61.716L75.5131 61.716L75.5131 68.1ZM68.4711 55.64L75.6111 55.64L75.6111 57.306L68.4711 57.306L68.4711 55.64ZM69.1431 57.838L74.9391 57.838L74.9391 61.184L69.1431 61.184L69.1431 57.838ZM70.5571 64.796L70.9771 64.796L70.6551 63.662L71.7051 63.662L72.0271 64.796L72.0551 64.796L72.3771 63.662L73.4271 63.662L73.1051 64.796L73.5251 64.796L73.5251 66.28L72.7971 66.28L72.7971 68.1L71.2851 68.1L71.2851 66.28L70.5571 66.28L70.5571 64.796ZM73.1331 59.854L73.1331 59.168L70.9491 59.168L70.9491 59.854L73.1331 59.854ZM75.7511 66.266L77.5571 66.266L77.5571 63.942L75.8911 63.942L75.8911 56.634L77.5711 56.634L77.5711 55.444L79.2791 55.444L79.2791 56.634L80.9171 56.634L80.9171 63.942L79.2371 63.942L79.2371 66.266L79.9931 66.266L79.8531 64.516L81.0571 64.516L81.3371 67.904L75.7511 67.904L75.7511 66.266ZM77.7671 62.178L77.7671 58.398L77.0811 58.398L77.0811 62.178L77.7671 62.178ZM79.7271 62.178L79.7271 58.398L79.0411 58.398L79.0411 62.178L79.7271 62.178ZM94.8191 63.746L94.8191 68.016L86.6291 68.016L86.6291 63.746L94.8191 63.746ZM82.3311 60.134Q83.9551 58.272 84.5991 55.5L86.4331 55.5Q86.1251 57.376 85.3971 58.972L85.3971 68.17L83.5771 68.17L83.5771 61.8Q83.0311 62.43 82.3311 63.018L82.3311 60.134ZM86.3071 56.522L89.8211 56.522L89.8211 55.43L91.6411 55.43L91.6411 56.522L95.1411 56.522L95.1411 58.174L86.3071 58.174L86.3071 56.522ZM86.8671 61.394L94.5811 61.394L94.5811 62.878L86.8671 62.878L86.8671 61.394ZM86.8671 59.042L94.5811 59.042L94.5811 60.526L86.8671 60.526L86.8671 59.042ZM93.0131 66.56L93.0131 65.202L88.4351 65.202L88.4351 66.56L93.0131 66.56ZM96.1911 68.1Q96.5411 66.672 96.6811 65.307Q96.8211 63.942 96.8211 62.178L96.8211 55.668L101.189 55.668L101.189 68.1L99.5791 68.1L99.5791 64.572L98.3611 64.572Q98.2351 66.476 97.8991 68.1L96.1911 68.1ZM99.5791 62.85L99.5791 61.016L98.4311 61.016L98.4311 62.178L98.4311 62.85L99.5791 62.85ZM99.5791 59.294L99.5791 57.46L98.4311 57.46L98.4311 59.294L99.5791 59.294ZM102.043 55.71L108.791 55.71L108.329 60.176L104.899 60.176L104.899 58.538L106.719 58.538L106.817 57.46L103.793 57.46L103.793 60.82L109.211 60.82Q108.609 63.298 107.531 65.356L109.211 68.1L107.461 68.1L106.663 66.798Q106.173 67.526 105.683 68.1L102.043 68.1L102.043 55.71ZM103.793 67.89Q104.787 66.77 105.599 65.524L103.835 62.458L103.793 62.458L103.793 67.89ZM106.467 64.012Q106.845 63.284 107.153 62.458L105.613 62.458L106.467 64.012ZM113.215 64.404L113.215 66.7L110.919 66.7L110.919 64.404L113.215 64.404ZM114.937 63.326Q116.519 62.276 117.618 60.974Q118.717 59.672 119.417 57.992L117.177 57.992L117.177 59.42L115.357 59.42L115.357 56.256L119.991 56.256Q120.131 55.766 120.243 55.22L122.119 55.22Q121.979 55.92 121.881 56.256L127.397 56.256L127.397 59.42L125.577 59.42L125.577 57.992L123.281 57.992Q123.323 61.072 124.499 63.074L125.857 60.078L127.635 60.078L126.235 63.172L124.555 63.172Q125.647 64.964 127.677 65.944L127.677 68.072Q124.667 66.714 123.134 64.145Q121.601 61.576 121.545 57.992L121.349 57.992Q120.341 60.694 118.563 62.682L119.235 62.682L119.235 66.294L120.943 66.294L120.943 68.1L117.429 68.1L117.429 63.816Q116.365 64.768 114.937 65.552L114.937 63.326ZM141.425 63.746L141.425 68.016L133.235 68.016L133.235 63.746L141.425 63.746ZM128.937 60.134Q130.561 58.272 131.205 55.5L133.039 55.5Q132.731 57.376 132.003 58.972L132.003 68.17L130.183 68.17L130.183 61.8Q129.637 62.43 128.937 63.018L128.937 60.134ZM132.913 56.522L136.427 56.522L136.427 55.43L138.247 55.43L138.247 56.522L141.747 56.522L141.747 58.174L132.913 58.174L132.913 56.522ZM133.473 61.394L141.187 61.394L141.187 62.878L133.473 62.878L133.473 61.394ZM133.473 59.042L141.187 59.042L141.187 60.526L133.473 60.526L133.473 59.042ZM139.619 66.56L139.619 65.202L135.041 65.202L135.041 66.56L139.619 66.56ZM142.755 63.718Q144.687 61.338 145.765 58.678L143.259 58.678L143.259 56.942L144.855 56.942L144.855 55.43L146.647 55.43L146.647 56.942L148.201 56.942Q147.795 58.664 146.997 60.456L146.661 61.142L146.661 61.226L148.229 61.954L148.229 63.886L146.661 63.158L146.661 68.1L144.813 68.1L144.813 63.718L142.755 63.718ZM148.117 66.028L150.945 66.028L150.945 60.372L148.537 60.372L148.537 58.538L150.945 58.538L150.945 55.542L152.793 55.542L152.793 58.538L155.341 58.538L155.341 60.372L152.793 60.372L152.793 66.028L155.761 66.028L155.761 67.862L148.117 67.862L148.117 66.028ZM168.431 61.45L158.323 61.45L158.323 55.626L168.431 55.626L168.431 61.45ZM156.937 66.49L157.973 66.364L157.973 61.786L159.793 61.786L159.793 62.85L163.279 62.85L163.279 64.53L159.793 64.53L159.793 66.126L163.461 65.664L163.461 67.358L156.937 68.184L156.937 66.49ZM166.625 59.952L166.625 59.21L160.129 59.21L160.129 59.952L166.625 59.952ZM166.625 57.88L166.625 57.138L160.129 57.138L160.129 57.88L166.625 57.88ZM164.371 61.786L166.191 61.786L166.191 63.2Q167.857 62.78 169.677 62.206L169.677 63.9Q167.871 64.488 166.191 64.88L166.191 66.238L169.817 66.238L169.817 68.016L164.371 68.016L164.371 61.786ZM176.285 66.896L171.287 66.882L171.287 55.78L176.285 55.794L176.285 66.896ZM174.521 65.174L174.521 62.094L173.051 62.08L173.051 65.16L174.521 65.174ZM174.521 60.414L174.521 57.516L173.051 57.502L173.051 60.4L174.521 60.414ZM176.439 68.1Q176.971 66.7 177.174 65.293Q177.377 63.886 177.377 62.178L177.377 55.668L183.313 55.668L183.313 68.1L181.535 68.1L181.535 64.572L179.071 64.572Q178.889 66.406 178.413 68.1L176.439 68.1ZM181.535 62.85L181.535 61.016L179.169 61.016L179.169 62.178L179.169 62.85L181.535 62.85ZM181.535 59.294L181.535 57.46L179.169 57.46L179.169 59.294L181.535 59.294ZM185.749 60.036L190.467 60.036L190.467 58.342L185.077 58.342L185.077 56.55L190.467 56.55L190.467 55.22L192.287 55.22L192.287 56.55L197.677 56.55L197.677 58.342L192.287 58.342L192.287 60.036L197.005 60.036L197.005 66.98L194.093 66.98L194.093 65.188L195.213 65.188L195.213 61.842L192.287 61.842L192.287 68.1L190.467 68.1L190.467 61.842L187.541 61.842L187.541 66.98L185.749 66.98L185.749 60.036ZM204.929 66.154Q206.147 65.538 206.714 64.761Q207.281 63.984 207.421 63.018L204.887 63.018L204.887 61.31L207.463 61.31L207.463 58.916L205.181 58.916L205.181 57.208L206.063 57.208L205.685 55.5L207.393 55.5L207.771 57.208L209.143 57.208L209.521 55.5L211.229 55.5L210.851 57.208L211.677 57.208L211.677 58.916L209.255 58.916L209.255 61.31L211.831 61.31L211.831 63.018L209.451 63.018Q210.487 63.942 211.082 65.16Q211.677 66.378 211.887 68.086L210.123 68.086Q210.011 66.994 209.675 66.203Q209.339 65.412 208.709 64.824Q207.715 67.12 204.929 68.268L204.929 66.154ZM199.077 65.79L199.665 65.678L199.665 57.264L199.077 57.264L199.077 55.654L205.069 55.654L205.069 57.264L204.481 57.264L204.481 68.1L202.815 68.1L202.815 66.798L199.077 67.498L199.077 65.79ZM202.815 65.09L202.815 63.648L201.331 63.648L201.331 65.37L202.815 65.09ZM202.815 62.038L202.815 60.456L201.331 60.456L201.331 62.038L202.815 62.038ZM202.815 58.846L202.815 57.264L201.331 57.264L201.331 58.846L202.815 58.846ZM212.755 63.718Q214.687 61.338 215.765 58.678L213.259 58.678L213.259 56.942L214.855 56.942L214.855 55.43L216.647 55.43L216.647 56.942L218.201 56.942Q217.795 58.664 216.997 60.456L216.661 61.142L216.661 61.226L218.229 61.954L218.229 63.886L216.661 63.158L216.661 68.1L214.813 68.1L214.813 63.718L212.755 63.718ZM218.117 66.028L220.945 66.028L220.945 60.372L218.537 60.372L218.537 58.538L220.945 58.538L220.945 55.542L222.793 55.542L222.793 58.538L225.341 58.538L225.341 60.372L222.793 60.372L222.793 66.028L225.761 66.028L225.761 67.862L218.117 67.862L218.117 66.028Z"></path><path fill-rule="evenodd"  fill="rgba(225, 195, 106, 1)"  d="M118.641,58.492h-0.964v1.428h-2.82v-4.164h4.751c0.052,-0.20493 0.10033,-0.4171 0.145,-0.6365l0.082,-0.3995h2.894l-0.12,0.5981c-0.03133,0.15927 -0.06167,0.30523 -0.091,0.4379h5.379v3.822h0.513l-1.852,4.094h-1.035c0.62133,0.7512 1.412,1.35843 2.372,1.8217l0.282,0.1365v3.2159l-0.706,-0.3183c-2.102,-0.94847 -3.69067,-2.324 -4.766,-4.1266c-0.81533,-1.36647 -1.33067,-2.93393 -1.546,-4.7024c-0.43933,0.89347 -0.95067,1.7212 -1.534,2.4832h0.11v3.612h1.708v2.806h-4.514v-3.7302c-0.532,0.3982 -1.11567,0.7717 -1.751,1.1205l-0.741,0.4066v-3.3391l0.224,-0.1484c1.01467,-0.67367 1.873,-1.4263 2.575,-2.2579c0.54533,-0.6458 1.01367,-1.36563 1.405,-2.1595zM118.874,57.992h0.543c-0.07067,0.16953 -0.14433,0.3362 -0.221,0.5c-0.43,0.91807 -0.956,1.7454 -1.578,2.482c-0.73267,0.868 -1.62633,1.652 -2.681,2.352v2.226c0.17067,-0.09367 0.33733,-0.1891 0.5,-0.2863c0.54,-0.32273 1.03733,-0.66527 1.492,-1.0276c0.17267,-0.1378 0.33933,-0.2785 0.5,-0.4221v4.284h3.514v-1.806h-1.708v-3.612h-0.672c0.146,-0.16307 0.288,-0.32973 0.426,-0.5c0.836,-1.03113 1.52967,-2.1944 2.081,-3.4898c0.09733,-0.22827 0.19,-0.46063 0.278,-0.6971c0.00067,-0.00107 0.001,-0.0021 0.001,-0.0031h0.196c0.00067,0.02453 0.001,0.04907 0.001,0.0736c0.00533,0.2412 0.01533,0.47893 0.03,0.7132c0.13067,2.0558 0.65,3.84453 1.558,5.3662c0.93533,1.5674 2.283,2.7967 4.043,3.6879c0.16333,0.0826 0.33,0.1623 0.5,0.2391v-2.128c-1.158,-0.55913 -2.087,-1.31647 -2.787,-2.272c-0.02333,-0.03187 -0.04633,-0.06387 -0.069,-0.096c-0.09267,-0.131 -0.18133,-0.26567 -0.266,-0.404h1.68l1.174,-2.594l0.226,-0.5h-1.778l-1.1,2.428l-0.076,0.166l-0.182,0.402c-0.07667,-0.13053 -0.14967,-0.26453 -0.219,-0.402c-0.026,-0.0516 -0.05167,-0.10367 -0.077,-0.1562c-0.534,-1.12093 -0.83633,-2.4622 -0.907,-4.0238c-0.00733,-0.16427 -0.01233,-0.33093 -0.015,-0.5h1.796h0.5v1.428h1.82v-3.164h-5.516c0.03733,-0.1274 0.079,-0.29407 0.125,-0.5c0.00267,-0.0118 0.00533,-0.0238 0.008,-0.036c0.03267,-0.1474 0.06767,-0.31407 0.105,-0.5h-1.876c-0.07467,0.364 -0.15867,0.70933 -0.252,1.036h-4.634v3.164h1.82v-1.428h0.5zM125.077,58.492h-1.281c0.06133,1.3032 0.28933,2.4408 0.684,3.4128l0.9,-1.9848h-0.303zM189.967,58.842h-5.39v-2.792h5.39v-1.33h2.82v1.33h5.39v2.792h-5.39v0.694h4.718v7.944h-3.912v-2.792h1.12v-2.346h-1.926v6.258h-2.82v-6.258h-1.926v5.138h-2.792v-7.944h4.718zM190.467,59.536v0.5h-4.718v6.944h0.5h0.792h0.5v-5.138h2.926v6.258h1.82v-6.258h2.926v0.5v2.846h-1.12v1.792h0.5h1.912h0.5v-6.944h-4.718v-1.694h5.39v-1.792h-5.39v-1.33h-1.82v1.33h-5.39v1.792h5.39zM86.4331,55.5h-1.834c-0.42933,1.848 -1.18533,3.39267 -2.268,4.634v2.884c0.1738,-0.146 0.34047,-0.29393 0.5,-0.4438c0.084,-0.07887 0.166,-0.15827 0.246,-0.2382c0.17627,-0.17607 0.34293,-0.35473 0.5,-0.536v6.37h1.82v-9.198c0.15007,-0.32893 0.28673,-0.6668 0.41,-1.0136c0.2194,-0.6172 0.39643,-1.26267 0.5311,-1.9364c0.0016,-0.00793 0.00307,-0.01527 0.0044,-0.022c0.03267,-0.16493 0.06283,-0.3316 0.0905,-0.5zM83.0771,63.0282c-0.13667,0.1256 -0.27813,0.24983 -0.4244,0.3727l-0.8216,0.6901v-4.1444l0.1232,-0.1412c1.028,-1.17867 1.74727,-2.6515 2.1578,-4.4185l0.0899,-0.3869h2.8199l-0.0954,0.581c-0.02433,0.14827 -0.05057,0.29527 -0.0787,0.441h2.4733v-1.092h2.82v1.092h3.5v2.652h-0.56v4.572h0.238v5.27h-9.19v-5.27h0.238v-4.572h-0.2974c-0.0554,0.13653 -0.11293,0.2717 -0.1726,0.4055v9.5905h-2.82zM86.3071,58.0438v0.1302h8.834v-1.652h-3.5v-1.092h-1.82v1.092h-3.514zM133.039,55.5h-1.834c-0.42933,1.848 -1.18533,3.39267 -2.268,4.634v2.884c0.174,-0.146 0.34067,-0.29393 0.5,-0.4438c0.084,-0.07887 0.166,-0.15827 0.246,-0.2382c0.176,-0.17607 0.34267,-0.35473 0.5,-0.536v6.37h1.82v-9.198c0.15,-0.32893 0.28667,-0.6668 0.41,-1.0136c0.21933,-0.6172 0.39633,-1.26267 0.531,-1.9364c0.00133,-0.00713 0.003,-0.01447 0.005,-0.022c0.03267,-0.16493 0.06267,-0.3316 0.09,-0.5zM129.683,63.0282c-0.13667,0.1256 -0.278,0.24983 -0.424,0.3727l-0.822,0.6901v-4.1444l0.123,-0.1412c1.028,-1.17867 1.74733,-2.6515 2.158,-4.4185l0.09,-0.3869h2.82l-0.095,0.581c-0.02467,0.14833 -0.051,0.29533 -0.079,0.441h2.473v-1.092h2.82v1.092h3.5v2.652h-0.56v4.572h0.238v0.7011l0.442,-0.5442c1.08867,-1.34107 1.96833,-2.74937 2.639,-4.2249h-2.247v-2.736h1.596v-1.512h2.792v1.512h1.686l-0.145,0.6147c-0.07667,0.32547 -0.16367,0.65257 -0.261,0.9813h2.018v-2.996h2.848v2.996h2.548v2.834h-2.548v4.656h2.968v2.834h-8.644v-2.834h2.828v-4.656h-2.408v-1.6522c-0.17333,0.47633 -0.36767,0.9562 -0.583,1.4396l-0.004,0.0083l-0.149,0.3042l1.428,0.663v3.0345l-1.568,-0.728v4.6586h-2.848v-4.382h-2.388v4.298h-9.19v-5.27h0.238v-4.572h-0.297c-0.05533,0.13653 -0.113,0.2717 -0.173,0.4055v9.5905h-2.82zM132.913,58.0438v0.1302h8.834v-1.652h-3.5v-1.092h-1.82v1.092h-3.514zM144.313,63.718h0.5v4.382h1.848v-4.942l0.5,0.2321l0.568,0.2638l0.5,0.2321v-1.932l-1.568,-0.728v-0.084l0.336,-0.686c0.45533,-1.02173 0.81467,-2.0264 1.078,-3.014c0.04467,-0.1672 0.08667,-0.33387 0.126,-0.5h-1.554v-1.512h-1.792v1.512h-1.596v1.736h0.5h1.465h0.541c-0.068,0.16747 -0.13833,0.33413 -0.211,0.5c-0.61867,1.4066 -1.42033,2.75327 -2.405,4.04c-0.128,0.16767 -0.25933,0.33433 -0.394,0.5zM150.445,60.372h0.5v5.656h-2.828v1.834h7.644v-1.834h-2.968v-5.656h0.5h1.548h0.5v-1.834h-2.548v-2.996h-1.848v2.996h-0.5h-1.908v1.834h0.5zM212.759,59.178v-2.736h1.596v-1.512h2.792v1.512h1.686l-0.145,0.6147c-0.07667,0.32533 -0.16367,0.65243 -0.261,0.9813h2.018v-2.996h2.848v2.996h2.548v2.834h-2.548v4.656h2.968v2.834h-8.644v-2.834h2.828v-4.656h-2.408v-1.6522c-0.17333,0.4764 -0.36767,0.95627 -0.583,1.4396l-0.004,0.0083l-0.149,0.3042l1.428,0.663v3.0345l-1.568,-0.728v4.6586h-2.848v-4.382h-2.608l0.568,-0.7h-1.652c0.35733,0.43787 0.66067,0.91203 0.91,1.4225c0.42133,0.8622 0.70533,1.89037 0.852,3.0845l0.069,0.561h-2.78l-0.046,-0.449c-0.07,-0.67793 -0.207,-1.25743 -0.411,-1.7385c-0.10533,-0.2486 -0.236,-0.4801 -0.392,-0.6945c-0.76867,1.31693 -2.003,2.3257 -3.703,3.0263l-0.691,0.2845v-0.4148h-2.114v-1.1997l-3.738,0.7v-2.724l0.407,-0.0775l0.181,-0.0345v-7.5003h-0.588v-2.61h6.519l-0.034,-0.154h2.733l0.378,1.708h0.569l0.378,-1.708h2.732l-0.378,1.708h0.703v2.708h-2.422v1.394h2.576v2.637l0.036,-0.0441c1.08867,-1.34107 1.96833,-2.74937 2.639,-4.2249zM215.224,58.678h0.541c-0.068,0.1676 -0.13833,0.33427 -0.211,0.5c-0.61867,1.40653 -1.42033,2.7532 -2.405,4.04c-0.128,0.16773 -0.25933,0.3344 -0.394,0.5h1.558h0.5v4.382h1.848v-4.942l0.5,0.2321l0.568,0.2638l0.5,0.2321v-1.932l-1.568,-0.728v-0.084l0.336,-0.686c0.45533,-1.02173 0.81467,-2.0264 1.078,-3.014c0.04467,-0.16733 0.08667,-0.334 0.126,-0.5h-1.554v-1.512h-1.792v1.512h-1.596v1.736h0.5zM220.945,58.038v0.5h-0.5h-1.908v1.834h0.5h1.408h0.5v5.656h-2.828v1.834h7.644v-1.834h-2.968v-5.656h0.5h1.548h0.5v-1.834h-2.548v-2.996h-1.848zM209.96,63.518c-0.16,-0.17327 -0.32967,-0.33993 -0.509,-0.5h2.38v-1.708h-2.576v-2.394h2.422v-1.708h-0.826l0.111,-0.5l0.156,-0.708l0.111,-0.5h-1.708l-0.378,1.708h-1.372l-0.378,-1.708h-1.708l0.111,0.5l0.156,0.708l0.111,0.5h-0.882v1.708h2.282v2.394h-2.576v1.708h2.534c-0.02467,0.17113 -0.05933,0.3378 -0.104,0.5c-0.12467,0.44827 -0.32567,0.8626 -0.603,1.243c-0.37,0.50687 -0.94767,0.96237 -1.733,1.3665c-0.01733,0.00887 -0.03467,0.0177 -0.052,0.0265v2.114c0.01733,-0.0072 0.03467,-0.0144 0.052,-0.0216c0.15333,-0.0642 0.30267,-0.13107 0.448,-0.2006c1.40067,-0.67027 2.41733,-1.58647 3.05,-2.7486c0.08333,-0.15347 0.16,-0.3112 0.23,-0.4732c0.13333,0.12447 0.257,0.25577 0.371,0.3939c0.244,0.29687 0.44233,0.62523 0.595,0.9851c0.224,0.52733 0.37333,1.155 0.448,1.883h1.764c-0.02067,-0.1702 -0.04433,-0.33687 -0.071,-0.5c-0.152,-0.9268 -0.39667,-1.73547 -0.734,-2.426c-0.29333,-0.601 -0.66733,-1.14833 -1.122,-1.642zM204.981,65.5602c0.598,-0.3348 1.041,-0.69943 1.329,-1.0939c0.214,-0.29273 0.37567,-0.60883 0.485,-0.9483h-1.814zM204.481,63.518v-6.254h0.588v-1.61h-5.992v1.61h0.588v8.414l-0.588,0.112v1.708l0.5,-0.0936l2.738,-0.5128l0.5,-0.0936v1.302h1.666zM204.981,60.81h1.982v-1.394h-1.982zM75.5131,65.766v-4.05h-6.944v6.384h1.736v-4.704h3.472v0.5v4.204h1.736zM76.0131,68.404v0.196h-7.944v-7.384h0.574v-3.41h-0.672v-2.666h8.14v0.994h0.96v-1.19h2.708v1.19h1.638v7.882h0.1004l0.3626,4.388zM79.7371,63.942h1.18v-7.308h-1.638v-1.19h-1.708v1.19h-1.68v7.308h0.122h0.378h0.666h0.5v2.324h-0.5h-1.306v1.638h5.586l-0.0413,-0.5l-0.2387,-2.888h-1.204l0.04,0.5l0.06,0.75l0.04,0.5h-0.756v-2.324zM76.0131,65.766h1.044v-1.324h-1.044zM75.3911,57.306h0.22v-1.666h-0.5h-6.14h-0.5v1.666zM71.2851,66.78v1.32h1.512v-1.82h0.228h0.252h0.248v-1.484h-0.42l0.142,-0.5l0.03,-0.1057l0.008,-0.0283l0.0756,-0.266l0.0664,-0.234h-1.05l-0.0664,0.234l-0.0097,0.0341l-0.2434,0.8573l-0.0025,0.0086h-0.028l-0.0024,-0.0086l-0.2435,-0.8573l-0.0096,-0.0341l-0.0665,-0.234h-1.05l0.0665,0.234l0.0755,0.266l0.008,0.0283l0.03,0.1057l0.142,0.5h-0.42v1.484h0.228h0.5zM166.691,62.5543c0.688,-0.18213 1.39533,-0.38357 2.122,-0.6043h-2.122zM166.191,61.95v-0.164h-1.82v6.23h5.446v-1.778h-3.626v-1.358c1.12,-0.26133 2.282,-0.588 3.486,-0.98v-1.694c-0.16733,0.05287 -0.334,0.10477 -0.5,0.1557c-0.85467,0.26267 -1.68333,0.49923 -2.486,0.7097c-0.168,0.044 -0.33467,0.08687 -0.5,0.1286zM166.691,65.2746v0.4634h3.626v2.778h-6.446v-0.7059l-7.434,0.9412v-2.7042l0.44,-0.0534l0.596,-0.0726v-4.6351h0.35v-6.16h11.108v6.7881c0.19733,-0.06027 0.396,-0.1219 0.596,-0.1849l0.65,-0.2052v2.739l-0.345,0.1124c-1.08,0.3516 -2.127,0.65133 -3.141,0.8992zM158.323,61.286v0.164h10.108v-5.824h-0.5h-9.108h-0.5zM163.871,61.95h-3.578v0.4h3.486v2.68h-3.486v0.5291l3.578,-0.4507zM160.293,66.063l-0.5,0.063v-1.596h3.486v-1.68h-3.486v-1.064h-1.82v4.578l-1.036,0.126v1.694l0.5,-0.0633l6.024,-0.7627v-1.694l-0.5,0.063zM96.3211,62.178v-7.01h5.3679v0.042h7.657l-0.529,5.11h1.03l-0.15,0.618c-0.38667,1.59087 -0.91767,3.0564 -1.593,4.3966l2,3.2654h-2.923l-0.547,-0.8934c-0.19,0.25573 -0.38033,0.49507 -0.571,0.718l-0.149,0.1754h-2.082l-0.539,0.6066v-0.6066h-4.2139v-3.528h-0.2534c-0.0904,1.11533 -0.23607,2.15843 -0.437,3.1293l-0.0824,0.3987h-2.7525l0.1517,-0.619c0.22787,-0.92967 0.38727,-1.838 0.4782,-2.725c0.0916,-0.89307 0.1374,-1.91907 0.1374,-3.078zM104.399,60.32v-2.282h1.864l0.007,-0.078h-1.977v2.36zM103.793,60.32v-2.86h3.024l-0.045,0.5l-0.053,0.578h-1.82v1.638h0.5h2.93l0.41,-3.966l0.052,-0.5h-6.248h-0.5v12.39h3.64c0.22267,-0.26087 0.44533,-0.54557 0.668,-0.8541c0.104,-0.14413 0.208,-0.29343 0.312,-0.4479l0.287,0.4673l0.511,0.8347h1.75l-0.306,-0.5l-1.374,-2.244c0.64533,-1.2324 1.163,-2.57773 1.553,-4.036c0.044,-0.1652 0.08633,-0.33187 0.127,-0.5h-5.418zM104.046,67.6c-0.08333,0.09733 -0.16767,0.194 -0.253,0.29v-5.432h0.042l0.458,0.796l1.306,2.27c-0.402,0.61673 -0.83733,1.2103 -1.306,1.7807c-0.08133,0.09913 -0.16367,0.19757 -0.247,0.2953zM104.293,66.5017c0.25,-0.32473 0.48967,-0.65683 0.719,-0.9963l-0.719,-1.2487zM99.0791,64.572h0.5v0.5v3.028h1.6099v-12.432h-0.5h-3.8679v6.51c0,1.176 -0.04667,2.219 -0.14,3.129c-0.07693,0.75007 -0.2014,1.5144 -0.3734,2.293c-0.03673,0.166 -0.0756,0.33267 -0.1166,0.5h1.708c0.224,-1.08267 0.378,-2.25867 0.462,-3.528zM170.787,67.3806v-12.102l5.998,0.0168v9.0232c0.06133,-0.66693 0.092,-1.38047 0.092,-2.1406v-7.01h6.936v13.432h-2.778v-3.528h-1.516c-0.13,1.091 -0.33833,2.14543 -0.625,3.1633l-0.102,0.3647h-3.078l0.258,-0.6776c0.06667,-0.1756 0.12933,-0.35117 0.188,-0.5267zM176.685,67.3971c-0.02133,0.06767 -0.04333,0.1353 -0.066,0.2029c-0.05667,0.16673 -0.11667,0.3334 -0.18,0.5h1.974c0.31733,-1.12933 0.53667,-2.30533 0.658,-3.528h2.464v3.528h1.778v-12.432h-5.936v6.51c0,1.13867 -0.06767,2.177 -0.203,3.115c-0.08533,0.59393 -0.215,1.18697 -0.389,1.7791c-0.032,0.1084 -0.06533,0.21673 -0.1,0.325zM176.285,55.794l-4.498,-0.0126l-0.5,-0.0014v11.102v0l4.498,0.0126l0.5,0.0014v0v-0.5zM166.125,57.138h0.5v0.742h-0.5h-5.996v-0.742zM201.831,57.764v0.582h0.484v-0.582zM202.315,57.264h0.5v1.582h-1.484v-1.582zM99.5791,58.794v0.5h-1.148v-1.834h1.148v0.5zM99.0791,58.794v-0.834h-0.148v0.834zM179.669,57.96v0.834h1.366v-0.834zM181.035,57.46h0.5v1.834h-2.366v-1.834zM174.521,60.414l-0.5,-0.0048l-0.97,-0.0092v-2.898l0.5,0.0048l0.97,0.0092v2.398zM174.021,59.9092v-1.8979l-0.47,-0.0045v1.8979zM69.6431,57.838h-0.5v3.346h5.796v-3.346zM77.0811,58.398h0.686v3.78h-0.686v-0.5zM79.7271,61.678v0.5h-0.686v-3.78h0.686v0.5zM86.8671,59.042v1.484h7.714v-1.484zM133.473,59.042v1.484h7.714v-1.484zM71.4491,59.168h1.684v0.686h-2.184v-0.686zM166.625,59.71v0.242h-0.5h-5.996v-0.742h6.496zM202.815,60.956v1.082h-0.5h-0.984v-1.582h0.5h0.484h0.5zM201.831,60.956v0.582h0.484v-0.582zM99.5791,62.35v0.5h-1.148v-1.834h1.148v0.5zM99.0791,62.35v-0.834h-0.148v0.834zM179.669,61.516v0.834h1.366v-0.834zM181.535,61.516v1.334h-2.366v-1.834h2.366zM94.0811,61.394h-7.214v1.484h7.714v-1.484zM140.687,61.394h-7.214v1.484h7.714v-1.484zM174.521,64.674v0.5l-0.5,-0.0048l-0.97,-0.0092v-3.08l0.5,0.0048l0.97,0.0092zM174.021,64.6692v-2.0799l-0.47,-0.0045v2.0799zM106.736,63.4629c-0.08667,0.1874 -0.17633,0.37043 -0.269,0.5491l-0.292,-0.532l-0.287,-0.522l-0.275,-0.5h1.54c-0.06333,0.1698 -0.12867,0.33647 -0.196,0.5c-0.07133,0.17173 -0.145,0.34003 -0.221,0.5049zM202.815,65.09l-0.984,0.1857l-0.5,0.0943v-1.722h1.484zM202.315,64.148h-0.484v0.6188l0.484,-0.0913zM94.8191,64.246v-0.5h-8.19v4.27h8.19zM141.425,64.246v-0.5h-8.19v4.27h8.19zM110.419,67.2v-3.296h3.296v3.296zM113.215,66.2v-1.796h-2.296v2.296h2.296zM88.9351,65.702v0.358h3.578v-0.358zM92.5131,65.202h0.5v0.5v0.858h-4.578v-1.358h0.5zM135.541,65.702v0.358h3.578v-0.358zM139.119,65.202h0.5v1.358h-4.578v-1.358h0.5z"></path></g></g><defs><filter id="filter_27_8" x="0" y="6.62255859375" width="184.1842041015625" height="32.23583984375" filterUnits="userSpaceOnUse" color-interpolation-filters="sRGB"><feFlood flood-opacity="0" result="feFloodId_27_8"/><feColorMatrix in="SourceAlpha" type="matrix" values="0 0 0 0 0 0 0 0 0 0 0 0 0 0 0 0 0 0 127 0" result="hardAlpha_27_8"/><feOffset dx="0" dy="2"/><feGaussianBlur stdDeviation="2"/><feComposite in2="hardAlpha_27_8" operator="out"/><feColorMatrix type="matrix" values="0 0 0 0 0 0 0 0 0 0 0 0 0 0 0 0 0 0 0.25 0"/><feBlend mode="normal" in2="feFloodId_27_8" result="dropShadow_1_27_8"/><feBlend mode="normal" in="SourceGraphic" in2="dropShadow_1_27_8" result="shape_27_8"/></filter><filter id="filter_27_9" x="63.97113037109375" y="52.72021484375" width="166.28997802734375" height="22.486328125" filterUnits="userSpaceOnUse" color-interpolation-filters="sRGB"><feFlood flood-opacity="0" result="feFloodId_27_9"/><feColorMatrix in="SourceAlpha" type="matrix" values="0 0 0 0 0 0 0 0 0 0 0 0 0 0 0 0 0 0 127 0" result="hardAlpha_27_9"/><feOffset dx="0" dy="2"/><feGaussianBlur stdDeviation="2"/><feComposite in2="hardAlpha_27_9" operator="out"/><feColorMatrix type="matrix" values="0 0 0 0 0 0 0 0 0 0 0 0 0 0 0 0 0 0 0.25 0"/><feBlend mode="normal" in2="feFloodId_27_9" result="dropShadow_1_27_9"/><feBlend mode="normal" in="SourceGraphic" in2="dropShadow_1_27_9" result="shape_27_9"/></filter></defs></svg>