<svg t="1767855137461" class="icon" viewBox="0 0 1077 1024" version="1.1" xmlns="http://www.w3.org/2000/svg" p-id="5023" width="200" height="200"><path d="M711.464 0l-52.6 46.619 159.043 192.566 9.593 13.042 7.114 13.15 3.557 7.223 1.186 5.874 1.293 7.384v5.82l-1.293 14.39-3.45 13.204-6.036 13.15-8.354 13.097-230.885 265.378-5.982 4.796-2.317 6.037-7.222 8.353-5.875 10.887-3.557 10.725-4.85 10.725-2.426 10.78-1.24 11.964-2.424 10.67v12.02l2.425 11.91 1.24 13.204 3.61 10.725 4.85 12.019 4.636 11.857 6.09 12.018 4.743 5.875 2.317 4.904 168.637 205.609h265.324L864.579 830.949l-7.275-10.671-1.186-4.797-1.294-4.85v-13.043l1.294-4.85 1.186-4.797 2.425-5.982 4.85-7.222 5.983-10.617 7.114-8.408 154.193-179.416 10.886-13.15 8.3-11.91 5.982-12.02 7.06-11.856 4.797-12.019 3.611-11.91 2.426-11.965v-34.654l-2.426-12.073-3.61-10.779-4.797-11.91-7.06-12.019-5.983-9.54-8.3-11.91z" fill="#C8161E" p-id="5024"></path><path d="M339.537 286.882l1.24-19.08 3.556-20.371 1.294-9.486 3.557-10.779 7.222-17.947 8.3-16.707 4.742-8.354 4.85-8.407 11.966-14.336 10.832-15.63 15.414-11.964 14.336-10.725 16.762-10.725 16.76-8.408 17.894-5.982 10.833-3.504 9.485-1.293 9.593-2.317 10.78-1.294h9.539l10.779-2.264 17.839 2.264 17.947 3.611 18.055 2.48 16.653 7.06 8.462 3.718 8.407 3.45 16.654 8.407 15.521 9.647 13.312 11.91 10.618 13.259 7.168 5.928 4.742 7.114 12.073 13.259 8.353 16.6 8.3 16.76 1.24 8.3 3.503 8.408 4.85 17.947 3.557 18H620.652l-81.381-81.273-105.257 102.724 105.257 102.885 81.38-81.274h115.874l-3.557 20.265-4.85 16.761-3.503 8.3-1.24 8.408-8.3 16.76-8.353 16.708-12.073 13.15-11.91 13.205-10.618 13.15-13.312 11.91-8.407 4.797-7.114 4.85-8.354 4.851-8.3 3.557-16.869 7.168-16.653 5.929-18.055 4.743-17.947 2.371-17.84 1.186-20.318-1.186-20.372-3.503-9.485-1.24-10.833-3.61-17.893-7.06-16.761-8.355-8.354-4.85-8.408-4.85-14.336-12.02-15.414-11.856-10.832-14.336-11.965-15.63-9.593-16.653-8.3-15.468-7.222-19.186-3.557-9.594-1.294-9.485-2.425-10.779-1.132-9.647-1.24-9.593z" fill="#C8161E" p-id="5025"></path><path d="M364.706 0L33.36 388.581l-8.408 11.91-8.138 9.54-4.904 12.019-4.797 11.91-3.503 10.78L0 456.811v34.654l3.61 11.965 3.504 11.91 4.797 12.019 5.982 11.857 7.06 12.018 8.408 11.911 9.7 13.15L196.07 755.712l8.3 8.408 7.276 10.617 4.796 7.222 1.186 5.982 2.317 4.797 1.24 4.85v13.043l-1.24 4.85-2.317 4.797-5.982 10.671L56.158 995.975h266.564l167.505-205.609 3.718-4.904 3.45-5.875 6.036-12.018 4.689-11.857 6.09-12.019 2.317-10.725 2.425-13.204 1.294-11.91v-12.02l-1.294-10.67-2.425-11.965-1.186-10.779-4.796-10.725-4.689-10.725-6.144-10.887-5.767-8.353-3.718-6.037-4.69-4.796-230.83-265.378-8.354-13.096-7.276-13.15-2.317-13.205-2.318-14.39v-5.82l2.318-7.384L238 272.6l3.556-7.222 5.929-13.15 10.779-13.043 158.99-192.566z" fill="#C8161E" p-id="5026"></path></svg>