<svg xmlns="http://www.w3.org/2000/svg" xmlns:xlink="http://www.w3.org/1999/xlink" width="60" height="58" viewBox="0 0 60 58" fill="none"><circle cx="29" cy="29" r="29"   fill="#d4af37" ></circle><g ><path     fill="#FFFFFF"  d="M22.04 24.86L12.492 34.212C12.184 34.52 12.044 34.828 12.044 35.248L12.044 36.48C12.044 37.012 12.352 37.32 12.884 37.32L28.2 37.32C28.732 37.32 29.04 37.012 29.04 36.48L29.04 35.472C29.04 34.94 28.732 34.632 28.2 34.632L19.548 34.632C19.044 34.632 18.932 34.268 19.268 33.932L28.62 24.58C28.928 24.272 29.04 23.964 29.04 23.544L29.04 22.312C29.04 21.78 28.732 21.472 28.2 21.472L12.884 21.472C12.352 21.472 12.044 21.78 12.044 22.312L12.044 23.32C12.044 23.852 12.352 24.16 12.884 24.16L21.76 24.16C22.264 24.16 22.404 24.524 22.04 24.86ZM43.824 36.508L43.852 24.748C43.852 24.384 44.048 24.188 44.412 24.188L48.752 24.188C49.284 24.188 49.592 23.88 49.592 23.348L49.592 22.34C49.592 21.808 49.284 21.5 48.752 21.5L33.352 21.5C32.82 21.5 32.512 21.808 32.512 22.34L32.512 23.348C32.512 23.88 32.82 24.188 33.352 24.188L37.916 24.188C38.28 24.188 38.476 24.384 38.476 24.748L38.448 36.508C38.448 37.04 38.756 37.348 39.288 37.348L42.984 37.348C43.516 37.348 43.824 37.068 43.824 36.508Z"></path></g></svg>