<svg xmlns="http://www.w3.org/2000/svg" xmlns:xlink="http://www.w3.org/1999/xlink" width="200" height="200" viewBox="0 0 200 200" fill="none"><path d="M99.8562 36.1553C58.337 36.1553 18.3994 62.6387 4.95508 99.8748C18.3994 137.111 58.337 163.594 99.8562 163.594C141.178 163.594 181.511 137.111 194.955 99.8748C181.313 62.6387 141.178 36.1553 99.8562 36.1553ZM99.8562 139.699C78.108 139.699 60.3141 121.778 60.3141 99.8748C60.3141 77.9712 78.108 60.0501 99.8562 60.0501C121.604 60.0501 139.398 77.9712 139.398 99.8748C139.398 121.778 121.604 139.699 99.8562 139.699ZM123.582 99.8748C123.582 113.017 112.905 123.77 99.8562 123.77C86.8073 123.77 76.1309 113.017 76.1309 99.8748C76.1309 86.7326 86.8073 75.98 99.8562 75.98C112.905 75.98 123.582 86.7326 123.582 99.8748Z"   fill="#000000" fill-opacity="0.4"></path></svg>