<svg xmlns="http://www.w3.org/2000/svg" xmlns:xlink="http://www.w3.org/1999/xlink" width="200" height="200" viewBox="0 0 200 200" fill="none"><path d="M177.914 93.776L177.892 93.7539L177.87 93.7316C170.892 78.3209 162.551 65.8552 152.837 56.3454L143.134 66.5526C151.497 74.6344 158.741 85.3954 164.977 98.9018C149.027 133.532 126.408 149.983 95.4932 149.983C85.6682 149.983 76.663 148.311 68.455 144.934L57.9765 155.928C69.1861 161.596 81.6695 164.452 95.4932 164.452C132.312 164.452 159.738 144.248 177.892 104.083C179.365 100.828 179.365 97.0529 177.914 93.776ZM165.653 26.9963L157.534 18.4717C157.516 18.4532 157.499 18.4351 157.48 18.4175C157.462 18.3998 157.443 18.3827 157.424 18.366C157.405 18.3493 157.386 18.3331 157.366 18.3175C157.346 18.3018 157.326 18.2866 157.305 18.272C157.284 18.2574 157.263 18.2433 157.242 18.2297C157.22 18.2162 157.198 18.2032 157.176 18.1907C157.154 18.1783 157.132 18.1664 157.109 18.1551C157.086 18.1438 157.063 18.1331 157.04 18.123C157.017 18.1129 156.993 18.1034 156.969 18.0945C156.946 18.0856 156.922 18.0773 156.898 18.0696C156.873 18.062 156.849 18.0549 156.825 18.0485C156.8 18.042 156.775 18.0362 156.75 18.0311C156.726 18.0259 156.701 18.0214 156.676 18.0175C156.65 18.0136 156.625 18.0104 156.6 18.0078C156.575 18.0052 156.549 18.0032 156.524 18.0019C156.499 18.0007 156.474 18 156.448 18C156.423 18 156.397 18.0007 156.372 18.0019C156.347 18.0032 156.321 18.0052 156.296 18.0078C156.271 18.0104 156.246 18.0136 156.221 18.0175C156.196 18.0214 156.171 18.0259 156.146 18.0311C156.121 18.0362 156.096 18.042 156.072 18.0485C156.047 18.0549 156.023 18.062 155.999 18.0696C155.975 18.0773 155.95 18.0856 155.927 18.0945C155.903 18.1034 155.88 18.1129 155.856 18.123C155.833 18.1331 155.81 18.1438 155.787 18.1551C155.765 18.1664 155.742 18.1783 155.72 18.1907C155.698 18.2032 155.676 18.2162 155.655 18.2297C155.633 18.2433 155.612 18.2574 155.592 18.272C155.571 18.2866 155.55 18.3018 155.531 18.3175C155.511 18.3331 155.491 18.3493 155.472 18.366C155.453 18.3827 155.434 18.3998 155.416 18.4175C155.398 18.4351 155.38 18.4532 155.363 18.4717L132.988 41.9421C121.811 36.2406 109.328 33.3843 95.4932 33.3843C58.6854 33.3954 31.2706 53.5887 13.1049 93.7539C11.6317 97.0308 11.6317 100.85 13.1049 104.127C20.0832 119.549 28.4239 132.004 38.1382 141.536L18.8537 161.74C18.836 161.759 18.8188 161.779 18.8021 161.799C18.7854 161.818 18.7691 161.839 18.7533 161.859C18.7375 161.88 18.7222 161.901 18.7074 161.922C18.6926 161.944 18.6782 161.965 18.6644 161.987C18.6506 162.009 18.6373 162.032 18.6246 162.054C18.6118 162.077 18.5996 162.1 18.5879 162.123C18.5762 162.146 18.5651 162.17 18.5545 162.194C18.5439 162.217 18.5338 162.241 18.5244 162.266C18.5149 162.29 18.506 162.314 18.4976 162.339C18.4893 162.363 18.4815 162.388 18.4744 162.413C18.4672 162.438 18.4606 162.463 18.4546 162.489C18.4486 162.514 18.4432 162.539 18.4383 162.565C18.4335 162.59 18.4293 162.616 18.4256 162.642C18.422 162.667 18.419 162.693 18.4166 162.719C18.4142 162.745 18.4123 162.771 18.4111 162.797C18.4099 162.823 18.4093 162.849 18.4093 162.875C18.4093 162.901 18.4099 162.927 18.4111 162.953C18.4123 162.979 18.4142 163.005 18.4166 163.03C18.419 163.056 18.422 163.082 18.4256 163.108C18.4293 163.134 18.4335 163.159 18.4383 163.185C18.4432 163.21 18.4486 163.236 18.4546 163.261C18.4606 163.286 18.4672 163.311 18.4744 163.337C18.4815 163.361 18.4893 163.386 18.4976 163.411C18.506 163.435 18.5149 163.46 18.5244 163.484C18.5338 163.508 18.5439 163.532 18.5545 163.556C18.5651 163.58 18.5762 163.603 18.5879 163.626C18.5996 163.65 18.6118 163.673 18.6246 163.695C18.6373 163.718 18.6506 163.74 18.6644 163.762C18.6782 163.784 18.6926 163.806 18.7074 163.827C18.7222 163.849 18.7375 163.87 18.7533 163.89C18.7691 163.911 18.7854 163.931 18.8021 163.951C18.8188 163.971 18.836 163.99 18.8537 164.01L26.9729 172.534C26.9902 172.552 27.0079 172.57 27.0261 172.588C27.0443 172.605 27.063 172.621 27.082 172.638C27.1011 172.655 27.1205 172.671 27.1404 172.687C27.1604 172.702 27.1807 172.717 27.2013 172.732C27.2219 172.746 27.2428 172.759 27.2643 172.773C27.2855 172.786 27.3071 172.799 27.3292 172.812C27.3512 172.824 27.3735 172.836 27.3962 172.847C27.4187 172.858 27.4416 172.868 27.4648 172.879C27.4878 172.889 27.5113 172.898 27.5349 172.906C27.5585 172.915 27.5823 172.924 27.6064 172.932C27.6303 172.939 27.6546 172.945 27.6791 172.951C27.7033 172.959 27.7279 172.965 27.7527 172.97C27.7772 172.974 27.8021 172.979 27.8271 172.983C27.8519 172.986 27.8769 172.989 27.902 172.992C27.927 172.994 27.9522 172.997 27.9773 172.998C28.0024 173 28.0277 173 28.0529 173C28.078 173 28.1033 173 28.1284 172.998C28.1536 172.997 28.1787 172.994 28.2039 172.992C28.2289 172.989 28.2539 172.986 28.2788 172.983C28.3037 172.979 28.3284 172.974 28.3532 172.97C28.3777 172.965 28.4023 172.959 28.4268 172.951C28.451 172.945 28.4753 172.939 28.4994 172.932C28.5234 172.924 28.5472 172.915 28.5708 172.906C28.5945 172.898 28.6178 172.889 28.6411 172.879C28.6641 172.868 28.687 172.858 28.7097 172.847C28.7321 172.836 28.7544 172.824 28.7765 172.812C28.7985 172.799 28.8201 172.786 28.8416 172.773C28.8628 172.759 28.8839 172.746 28.9046 172.732C28.9252 172.717 28.9454 172.702 28.9654 172.687C28.9852 172.671 29.0048 172.655 29.0238 172.638C29.0428 172.621 29.0614 172.605 29.0797 172.588C29.0979 172.57 29.1156 172.552 29.1329 172.534L165.653 29.2437C165.671 29.2248 165.688 29.2056 165.704 29.1859C165.721 29.1663 165.738 29.1462 165.753 29.1258C165.768 29.1054 165.783 29.0846 165.798 29.0635C165.813 29.0424 165.827 29.0209 165.841 28.9991C165.856 28.9773 165.868 28.9552 165.88 28.9328C165.894 28.9104 165.906 28.8877 165.916 28.8647C165.928 28.8417 165.941 28.8185 165.95 28.795C165.962 28.7715 165.971 28.7477 165.98 28.7237C165.991 28.6998 166 28.6756 166.007 28.6512C166.016 28.6268 166.024 28.6023 166.03 28.5775C166.037 28.5528 166.044 28.5279 166.05 28.5028C166.056 28.4778 166.062 28.4526 166.066 28.4273C166.072 28.4019 166.075 28.3765 166.078 28.351C166.083 28.3255 166.086 28.2999 166.087 28.2743C166.09 28.2487 166.092 28.223 166.094 28.1973C166.095 28.1715 166.095 28.1458 166.095 28.12C166.095 28.0942 166.095 28.0685 166.094 28.0428C166.092 28.017 166.09 27.9913 166.087 27.9657C166.086 27.9401 166.083 27.9145 166.078 27.889C166.075 27.8635 166.072 27.8381 166.066 27.8128C166.062 27.7875 166.056 27.7623 166.05 27.7372C166.044 27.7122 166.037 27.6873 166.03 27.6625C166.024 27.6378 166.016 27.6132 166.007 27.5888C166 27.5644 165.991 27.5402 165.98 27.5163C165.971 27.4923 165.962 27.4686 165.95 27.4451C165.941 27.4216 165.928 27.3983 165.916 27.3753C165.906 27.3523 165.894 27.3296 165.88 27.3072C165.868 27.2848 165.856 27.2627 165.841 27.2409C165.827 27.2191 165.813 27.1977 165.798 27.1765C165.783 27.1554 165.768 27.1346 165.753 27.1142C165.738 27.0938 165.721 27.0738 165.704 27.0541C165.688 27.0344 165.671 27.0152 165.653 26.9963ZM73.8273 104.028C73.6427 103.189 73.5041 102.344 73.4116 101.491C73.3189 100.638 73.2729 99.782 73.2735 98.9239C73.2735 86.4802 82.8769 76.4058 94.729 76.4058C96.3904 76.4058 98.052 76.605 99.6027 76.9925L73.8273 104.028ZM109.162 66.9401C108.883 66.8011 108.602 66.6663 108.319 66.5355C108.036 66.4045 107.751 66.2778 107.465 66.1552C107.178 66.0326 106.89 65.9141 106.6 65.7998C106.31 65.6855 106.019 65.5755 105.726 65.4695C105.432 65.3636 105.138 65.262 104.842 65.1647C104.545 65.0672 104.248 64.9741 103.949 64.8854C103.651 64.7964 103.351 64.7119 103.049 64.6318C102.748 64.5516 102.446 64.4759 102.143 64.4045C101.839 64.333 101.535 64.266 101.229 64.2033C100.924 64.1406 100.618 64.0823 100.311 64.0285C100.004 63.9746 99.6961 63.9252 99.3878 63.8803C99.0793 63.8353 98.7703 63.7949 98.4607 63.7589C98.151 63.7228 97.841 63.6912 97.5305 63.6641C97.22 63.6368 96.9091 63.6143 96.598 63.5963C96.2868 63.5781 95.9754 63.5643 95.6639 63.5553C95.3522 63.5462 95.0406 63.5415 94.729 63.5413C76.1202 63.5413 61.0227 79.3727 61.0227 98.9239C61.0227 104.349 62.1857 109.474 64.2571 114.08L47.8636 131.284C39.5007 123.202 32.2454 112.453 26.0092 98.9349C41.9818 64.3053 64.6115 47.865 95.4932 47.865C105.318 47.865 114.324 49.5257 122.543 52.9133L109.173 66.9401L109.162 66.9401ZM94.74 121.431C93.5216 121.431 92.3031 121.331 91.1401 121.11L81.3594 131.384C85.4578 133.255 89.9993 134.273 94.74 134.273C113.349 134.273 128.446 118.442 128.446 98.9018C128.446 93.9199 127.472 89.1594 125.688 84.8418L115.908 95.1265C116.096 96.3443 116.207 97.6175 116.207 98.8907C116.195 111.368 106.592 121.431 94.74 121.431Z"   fill="#000000" fill-opacity="0.4"></path></svg>