<svg xmlns="http://www.w3.org/2000/svg" xmlns:xlink="http://www.w3.org/1999/xlink" width="200" height="200" viewBox="0 0 200 200" fill="none"><path d="M76.3937 114.985C37.4671 114.985 8.39722 140.209 8.39722 176.838L8.39722 180.783C8.39722 199.929 39.5484 199.929 78.991 199.929L120.881 199.929C158.759 199.929 191.475 199.929 191.475 180.783L191.475 176.838C191.475 140.209 162.405 114.985 123.478 114.985L76.3937 114.985ZM97.8382 105.345C128.673 105.345 153.764 81.7356 153.764 52.6989C153.764 23.6788 128.673 0.0698242 97.8382 0.0698242C67.0201 0.0698242 41.9292 23.6788 41.9292 52.6989C41.9292 81.7356 67.0201 105.345 97.8382 105.345Z"   fill="#000000" fill-opacity="0.4"></path></svg>