<svg xmlns="http://www.w3.org/2000/svg" xmlns:xlink="http://www.w3.org/1999/xlink" width="200" height="200" viewBox="0 0 200 200" fill="none"><path d="M166.784 68.3041L148.967 68.3041C148.967 39.6881 127.096 17.8168 99.2203 17.8168C71.3061 17.8168 49.4736 39.6881 49.4736 68.3041L31.618 68.3041C31.618 33.957 61.9104 0 99.1813 0C136.452 0 166.784 33.957 166.784 68.3041ZM189.396 97.5828C189.396 87.7582 181.404 79.766 171.579 79.766L28.8109 79.766C18.9863 79.766 10.9941 87.7582 10.9941 97.5828L10.9941 182.183C10.9941 192.008 18.9863 200 28.8109 200L171.54 200C181.364 200 189.357 192.008 189.357 182.183L189.357 97.5828L189.396 97.5828ZM114.308 163.743C114.308 171.111 108.343 177.115 100.936 177.115L99.0254 177.115C91.6568 177.115 85.6529 171.15 85.6529 163.743L85.6529 127.485C85.6529 120.117 91.618 114.113 99.0254 114.113L100.936 114.113C108.304 114.113 114.308 120.078 114.308 127.485L114.308 163.743Z"   fill="#272636" fill-opacity="0.4"></path></svg>