<?xml version="1.0" encoding="UTF-8"?>
<svg width="20px" height="20px" viewBox="0 0 20 20" version="1.1" xmlns="http://www.w3.org/2000/svg" xmlns:xlink="http://www.w3.org/1999/xlink">
    <title>手机号icon</title>
    <g id="页面-1" stroke="none" stroke-width="1" fill="none" fill-rule="evenodd">
        <g id="登录页2" transform="translate(-842.000000, -328.000000)" fill="#99A8AB">
            <g id="编组-3" transform="translate(758.000000, 173.000000)">
                <g id="编组-2" transform="translate(68.000000, 139.000000)">
                    <g id="编组" transform="translate(16.000000, 16.000000)">
                        <g id="编组备份-4" transform="translate(4.000000, 0.833333)">
                            <path d="M11,0 C11.506261,-9.29986408e-17 11.9166667,0.410405646 11.9166667,0.916666667 L11.9166667,17.4166667 C11.9166667,17.9229277 11.506261,18.3333333 11,18.3333333 L0.916666667,18.3333333 C0.410405646,18.3333333 -3.82090116e-16,17.9229277 0,17.4166667 L0,0.916666667 C4.90232086e-17,0.410405646 0.410405646,-5.73135174e-16 0.916666667,0 L11,0 Z M5.95833333,15.4666667 C5.45207231,15.4666667 5.04166667,15.8770723 5.04166667,16.3833333 C5.04166667,16.8895944 5.45207231,17.3 5.95833333,17.3 C6.46459435,17.3 6.875,16.8895944 6.875,16.3833333 C6.875,15.8770723 6.46459435,15.4666667 5.95833333,15.4666667 Z M9.5,2.66666667 L2.5,2.66666667 C1.98716416,2.66666667 1.56449284,3.05270686 1.50672773,3.55004554 L1.5,3.66666667 L1.5,13.6666667 C1.5,14.1795025 1.88604019,14.6021738 2.38337887,14.6599389 L2.5,14.6666667 L9.5,14.6666667 C10.0128358,14.6666667 10.4355072,14.2806265 10.4932723,13.7832878 L10.5,13.6666667 L10.5,3.66666667 C10.5,3.11438192 10.0522847,2.66666667 9.5,2.66666667 Z M7,0.966666667 L5,0.966666667 L4.91012437,0.974722336 C4.67687516,1.0170583 4.5,1.22120678 4.5,1.46666667 C4.5,1.74280904 4.72385763,1.96666667 5,1.96666667 L5,1.96666667 L7,1.96666667 L7.08987563,1.958611 C7.32312484,1.91627504 7.5,1.71212656 7.5,1.46666667 C7.5,1.19052429 7.27614237,0.966666667 7,0.966666667 L7,0.966666667 Z" id="形状结合"></path>
                        </g>
                    </g>
                </g>
            </g>
        </g>
    </g>
</svg>