<svg xmlns="http://www.w3.org/2000/svg" xmlns:xlink="http://www.w3.org/1999/xlink" width="200" height="200" viewBox="0 0 200 200" fill="none"><path d="M187.405 42.6125C186.779 36.4508 182.249 31.4013 176.203 30.1284C170.075 29.1625 163.987 27.9817 157.942 26.5866C151.896 25.1912 145.906 23.5846 139.973 21.7669C138.523 21.1706 137.084 20.5491 135.655 19.9023C134.226 19.2557 132.81 18.5842 131.404 17.8879C129.999 17.1914 128.606 16.4705 127.226 15.7253C125.846 14.9803 124.479 14.2112 123.126 13.4181C121.773 12.625 120.434 11.8084 119.109 10.9684C117.784 10.1285 116.475 9.26568 115.18 8.3798C113.885 7.49387 112.606 6.58554 111.343 5.65483C110.08 4.72413 108.833 3.77158 107.604 2.79721C102.438 -0.932404 95.4705 -0.932404 90.3028 2.79721C89.7221 3.33559 89.1342 3.86576 88.5388 4.38768C87.9434 4.9096 87.3407 5.42308 86.731 5.92812C86.1214 6.43318 85.5048 6.92958 84.8813 7.41733C84.2578 7.90517 83.6275 8.38411 82.9906 8.85415C82.3538 9.32433 81.7105 9.78544 81.0607 10.2375C80.411 10.6895 79.755 11.1323 79.093 11.566C78.4307 11.9998 77.7627 12.4241 77.0889 12.8393C76.4151 13.2542 75.7355 13.6597 75.0503 14.0557C74.3649 14.4516 73.6744 14.8379 72.9785 15.2146C72.2825 15.5911 71.5815 15.9579 70.8751 16.3149C70.169 16.6718 69.458 17.0188 68.7421 17.3559C68.0262 17.693 67.3058 18.0199 66.5808 18.3367C65.8557 18.6536 65.1267 18.9602 64.3932 19.2566C63.6597 19.5531 62.9221 19.8392 62.1806 20.1149C61.4391 20.3908 60.6938 20.6562 59.9449 20.9111C59.196 21.166 58.4438 21.4103 57.688 21.644C56.2854 22.2258 54.872 22.7808 53.4484 23.3094C52.0249 23.8378 50.5921 24.3394 49.1498 24.8142C47.7076 25.2888 46.2568 25.7363 44.7978 26.1567C43.3388 26.5767 41.8724 26.9696 40.3987 27.3347C38.925 27.6999 37.4451 28.0373 35.9587 28.3469C34.4725 28.6564 32.981 28.938 31.4841 29.1915C29.9873 29.445 28.4862 29.6703 26.9811 29.8675C25.4759 30.0647 23.9675 30.2335 22.4559 30.374C16.2769 31.3745 11.6482 36.5893 11.3764 42.8582C11.1047 49.1271 11 74.1892 11 101.766C11 151.689 69.7543 200 99.1414 200C128.517 200 178.319 165.922 186.285 102.521C188.279 65.0728 187.405 42.6036 187.405 42.6036L187.405 42.6125ZM155.412 81.1749L94.0338 139.214C91.2717 141.854 87.0507 142.269 83.8297 140.215L82.2193 138.837L48.3526 103.524C45.1896 100.078 45.4101 94.7132 48.8471 91.5419C52.2841 88.3706 57.6345 88.594 60.7976 92.0377L88.6856 121.37L143.958 68.9454C147.398 65.7741 152.75 65.9974 155.913 69.4456C159.076 72.8939 158.854 78.2605 155.414 81.4318L155.414 81.1749L155.412 81.1749Z"   fill="#000000" fill-opacity="0.4"></path></svg>