<svg xmlns="http://www.w3.org/2000/svg" xmlns:xlink="http://www.w3.org/1999/xlink" width="256.39776611328125" height="75.7333984375" viewBox="0 0 256.39776611328125 75.7333984375" fill="none"><g ><g filter="url(#filter_29_5)"><path     fill="#FFFFFF"  d="M17.4778 17.44L17.8298 15.04L8.70975 15.04L9.12575 12L18.2458 12L18.4698 10.464L17.4138 9.248L24.7098 9.248L24.3258 12L32.2298 12L31.8138 15.04L23.9098 15.04L23.5578 17.44L32.6778 17.44L32.2618 20.48L23.1418 20.48L22.7898 22.944L30.6938 22.944L30.2778 25.984L22.3738 25.984L21.9898 28.704L31.7178 28.704L31.3018 31.744L15.4938 31.744L11.1098 30.496L10.6298 31.744L5.15775 31.744L8.58175 22.688L7.78175 21.728L14.4698 21.728L12.4218 27.104L16.0058 28.096L17.0618 20.48L6.72575 20.48L7.14175 17.44L17.4778 17.44ZM53.7658 29.216L54.9178 21.056L51.2058 21.056L47.5578 32.192L42.0858 32.192L47.5898 15.488L44.5178 15.488L44.9658 12.256L51.3978 12.256L51.6858 10.336L50.7258 9.312L57.3498 9.312L56.9338 12.256L62.1178 12.256L61.6698 15.488L53.0618 15.488L52.1978 18.08L60.6458 18.08L58.8858 30.464Q58.7898 31.2 58.1978 31.696Q57.6058 32.192 56.8698 32.192L51.3338 32.192L53.7658 29.216ZM34.5978 31.712L36.4858 18.368L34.5978 18.368L35.0138 15.328L42.2458 15.328L40.5498 27.296L42.5978 26.656L42.1498 29.824L34.5978 31.712ZM41.5418 9.856L42.4378 14.112L37.5418 14.112L36.6458 9.856L41.5418 9.856ZM89.4458 23.52L88.2938 31.744L71.2698 31.744L72.4218 23.52L89.4458 23.52ZM72.4218 12.896L69.6698 32.288L63.8778 32.288L66.4698 14.08L64.5818 14.432L65.0938 10.784L72.9338 9.248L72.4218 12.896ZM79.5258 11.68L79.7178 10.464L78.6938 9.248L85.9898 9.248L85.6378 11.68L91.7178 11.68L91.3018 14.72L73.0618 14.72L73.4778 11.68L79.5258 11.68ZM89.9898 19.584L89.5738 22.624L72.5498 22.624L72.9658 19.584L89.9898 19.584ZM89.9578 15.648L89.5098 18.656L73.7018 18.656L74.1498 15.648L89.9578 15.648ZM82.9178 28.704L83.2378 26.56L77.7978 26.56L77.4778 28.704L82.9178 28.704ZM103.846 10.816L104.454 9.888L104.006 9.312L111.43 9.312L110.438 10.816L121.03 10.816L119.206 23.616L96.6777 23.616L98.3098 12.064L97.5098 10.816L103.846 10.816ZM100.102 31.712L101.094 24.608L106.502 24.608L105.926 28.64L113.286 28.64L114.694 27.36L114.086 31.712L100.102 31.712ZM115.078 24.864L119.942 24.864L120.166 31.712L115.302 31.712L115.078 24.864ZM98.1818 31.712L93.4138 31.712L95.5898 24.864L100.358 24.864L98.1818 31.712ZM107.878 24.288L112.646 24.288L112.838 27.968L108.038 27.968L107.878 24.288ZM113.926 19.904L103.142 19.904L103.014 20.96L113.798 20.96L113.926 19.904ZM103.91 14.464L114.694 14.464L114.854 13.44L104.07 13.44L103.91 14.464ZM103.462 17.664L114.246 17.664L114.374 16.704L103.59 16.704L103.462 17.664ZM142.63 13.92L142.822 12.576L127.622 12.576L127.974 9.952L149.094 9.952L148.006 17.792L150.566 17.792L150.182 20.448L140.518 20.448L139.142 30.176Q139.014 31.104 138.31 31.696Q137.606 32.288 136.678 32.288L130.182 32.288L133.03 29.312L134.278 20.448L124.838 20.448L125.222 17.792L142.086 17.792L142.278 16.416L127.078 16.416L127.43 13.92L142.63 13.92ZM122.758 31.328L126.182 25.792L132.262 25.792L128.838 31.328L122.758 31.328ZM142.726 31.328L140.934 25.792L147.014 25.792L148.806 31.328L142.726 31.328ZM126.246 25.088L124.934 21.344L131.014 21.344L132.326 25.088L126.246 25.088ZM141.062 25.088L143.398 21.344L149.478 21.344L147.142 25.088L141.062 25.088ZM168.87 12.896L160.326 12.896L162.022 9.568L173.862 9.568L179.494 32.288L173.414 32.288L168.87 12.896ZM167.974 14.72L158.822 32.288L152.742 32.288L161.894 14.72L167.974 14.72Z"></path><path fill-rule="evenodd"  fill="rgba(225, 195, 106, 1)"  d="M72.8574,15.52l-0.4632,3.264h0.4797l0.4861,-3.264zM90.7856,15.52l-0.0366,0.2458l-0.4495,3.0182h0.6072l-0.1243,0.9085l-0.5107,3.7315h-0.0047l-0.029,0.207l-1.2485,8.913h-18.5481l-0.0772,0.544h-7.4084l2.5649,-18.0173l-1.8858,0.3516l0.7458,-5.3138l9.5014,-1.8615l-0.3696,2.633h5.3297l0.0284,-0.18l-1.8964,-2.252h9.9397l-0.352,2.432h6.0728l-0.635,4.64zM86.4461,11.68h-0.8083l0.1157,-0.8l0.1205,-0.832l0.1158,-0.8h-7.296l0.6736,0.8l0.3504,0.416l-0.192,1.216h-6.048l-0.3066,2.24l-0.1094,0.8h18.24l0.3065,-2.24l0.1095,-0.8zM65.6397,14.2348l0.8301,-0.1548l-0.119,0.836l-2.3592,16.572l-0.1138,0.8h5.792l2.752,-19.392l0.3943,-2.8097l0.1177,-0.8383l-0.8307,0.16275l-7.0093,1.37325l-0.3948,2.8123l-0.1172,0.8357l0.8295,-0.1547zM88.6379,23.52h-16.2161l-1.04,7.424l-0.112,0.8h17.024l1.0399,-7.424l0.1121,-0.8zM73.3572,22.624h16.2166l0.3065,-2.24l0.1095,-0.8h-17.024l-0.3066,2.24l-0.1094,0.8zM17.4778,17.44h-10.33605l-0.30652,2.24l-0.10948,0.8h10.33605l-0.111,0.8l-0.8342,6.0166l-0.1108,0.7994l-0.7778,-0.2153l-2.0318,-0.5624l-0.7744,-0.2143l0.286,-0.7509l1.4572,-3.8251l0.3048,-0.8h-6.68805l0.66667,0.8l0.13333,0.16l-3.12152,8.256l-0.30248,0.8h5.47205l0.48,-1.248l4.384,1.248h15.808l0.3065,-2.24l0.1095,-0.8h-9.728l0.1129,-0.8l0.2711,-1.92h7.904l0.3065,-2.24l0.1095,-0.8h-7.904l0.1142,-0.8l0.2378,-1.664h9.12l0.3065,-2.24l0.1095,-0.8h-9.12l0.1173,-0.8l0.2347,-1.6h7.904l0.3065,-2.24l0.1095,-0.8h-7.904l0.1116,-0.8l0.1607,-1.152l0.1117,-0.8h-7.296l0.6947,0.8l0.3613,0.416l-0.224,1.536h-9.12005l-0.30652,2.24l-0.10948,0.8h9.12005l-0.1174,0.8zM16.9039,15.84h-9.11108l0.63495,-4.64h9.12623l0.0712,-0.4884l-1.9657,-2.2636h9.9696l-0.384,2.752h7.9016l-0.635,4.64h-7.9107l-0.1174,0.8h9.1111l-0.635,4.64h-9.1241l-0.1234,0.864h7.8985l-0.635,4.64h-7.907l-0.1581,1.12h9.7241l-0.635,4.64h-16.6176l-3.7881,-1.0784l-0.4148,1.0784h-7.17919l3.66839,-9.7024l-1.30135,-1.5616h-0.55823l0.63495,-4.64h10.34273zM13.4822,26.5674l1.8566,0.5139l0.8044,-5.8013h-0.6467zM53.7658,29.216l-1.7783,2.176l-0.6537,0.8h5.536c0.49067,0 0.93333,-0.16533 1.328,-0.496c0.39467,-0.33067 0.624,-0.74133 0.688,-1.232l1.6463,-11.584l0.1137,-0.8h-8.448l0.2666,-0.8l0.5974,-1.792h8.608l0.3371,-2.432l0.1109,-0.8h-5.184l0.113,-0.8l0.1899,-1.344l0.1131,-0.8h-6.624l0.7499,0.8l0.2101,0.224l-0.288,1.92h-6.432l-0.3372,2.432l-0.1108,0.8h3.072l-0.2636,0.8l-4.2995,13.0485l-0.3925,1.191l-0.2848,0.8645l-0.2636,0.8h5.472l3.648,-11.136h3.712l-0.113,0.8zM53.9969,21.856h-2.2114l-3.648,11.136h-7.1577l0.7365,-2.235l-8.0771,2.0193l0.1664,-1.1764l1.759,-12.4319h-1.8838l0.635,-4.64h2.496l-1.152,-5.472h6.5311l0.1337,0.63519l1.0991,5.22081h-0.311l-1.5932,11.2428l1.9099,-0.5968l3.0544,-9.27h-2.8846l0.6698,-4.832h6.4398l0.1283,-0.8555l-1.9579,-2.0885h9.3915l-0.416,2.944h5.1816l-0.6698,4.832h-8.7281l-0.3307,0.992h8.2598l-1.8897,13.2966c-0.09007,0.69087 -0.41217,1.2684 -0.9663,1.7326c-0.54327,0.4552 -1.15717,0.6828 -1.8417,0.6828h-7.223l3.3581,-4.1092zM41.3952,27.0318l-0.8454,0.2642l0.1242,-0.877l1.4584,-10.291l0.1134,-0.8h-7.232l-0.3066,2.24l-0.1094,0.8h1.888l-0.1132,0.8l-1.6539,11.6891l-0.1209,0.8549l0.8375,-0.2094l6.5771,-1.6443l0.1374,-0.0343l0.0947,-0.6702l0.2292,-1.6209l0.1241,-0.8769l-0.8454,0.2642zM103.846,10.816h-6.3362l0.5128,0.8l0.2872,0.448l-1.519,10.752l-0.1131,0.8h22.5283l1.71,-12l0.114,-0.8h-10.592l0.464,-0.704l0.063,-0.096l0.465,-0.704h-7.424l0.448,0.576l-0.147,0.224zM102.37,8.512h10.546l-0.992,1.504h10.028l-2.002,14.048h0.766l0.276,8.448h-21.8097l0.1271,-0.9106l0.1985,-1.4211l-0.7409,2.3317h-6.4469l2.6844,-8.448h0.802l1.6696,-11.8181l-1.4294,-2.2299h7.3663l0.058,-0.08817zM114.263,24.416h-0.809l0.148,2.8549l0.732,-0.6653zM115.112,25.899l0.065,1.9923l0.003,0.1076l0.044,1.3454l0.078,2.3677h4.864l-0.026,-0.8l-0.198,-6.048h-4.864l0.026,0.8zM114.521,28.5985l0.173,-1.2385l-0.325,0.2956l-0.601,0.5456l-0.112,0.1019l-0.37,0.3369h-7.36l0.114,-0.8l0.347,-2.432l0.115,-0.8h-5.408l-0.145,1.0373l-0.736,5.2667l-0.111,0.8h13.984l0.336,-2.4103zM107.142,25.7831l-0.294,2.0569h0.383zM108.032,27.84l0.006,0.128h4.8v-0.0018l-0.007,-0.1262l-0.035,-0.672l-0.144,-2.752l-0.006,-0.128h-4.768l0.005,0.128l0.03,0.672zM99.5183,24.864h-3.9285l-1.9218,6.048l-0.2542,0.8h4.768l1.9222,-6.048l0.062,-0.1964l0.192,-0.6036zM169.11,13.92l0.056,0.2421l4.248,18.1259h6.08l-0.199,-0.8l-5.433,-21.92h-11.84l-1.289,2.528l-0.407,0.8h8.544zM168.288,13.92l-0.052,-0.224h-9.216l2.512,-4.928h12.956l6.028,24.32h-7.736l-4.18,-17.838l-9.293,17.838h-7.884l9.985,-19.168zM142.63,13.92h-15.2l-0.239,1.696l-0.113,0.8h15.2l-0.112,0.8l-0.08,0.576h-16.864l-0.269,1.856l-0.115,0.8h9.44l-0.113,0.8l-0.527,3.744l-0.017,0.124l-0.591,4.196l-2.083,2.176l-0.765,0.8h6.496c0.61867,0 1.16267,-0.19733 1.632,-0.592c0.46933,-0.39467 0.74667,-0.90133 0.832,-1.52l0.606,-4.288l0.038,-0.2666l0.077,-0.5411l0.012,-0.0883l0.643,-4.544h9.664l0.268,-1.856l0.116,-0.8h-2.56l0.111,-0.8l0.866,-6.24l0.111,-0.8h-21.12l-0.245,1.824l-0.107,0.8h15.2l-0.115,0.8zM127.274,9.152h22.738l-1.088,7.84h2.566l-0.616,4.256h-0.393l-2.698,4.3233l2.123,6.5567h-7.762l-0.179,-0.5536l-1.54,-4.7571l-0.491,3.4707c-0.11333,0.82013 -0.483,1.49357 -1.109,2.0203c-0.61867,0.5198 -1.33433,0.7797 -2.147,0.7797h-8.369l0.919,-0.96h-7.906l0.755,-1.2208l3.422,-5.5318l-0.008,-0.0228l-1.439,-4.1046h-0.138l0.04,-0.2801l-0.148,-0.4239h0.21l0.513,-3.552h1.66l0.546,-3.872h0.007zM142.515,21.248h-1.302l-0.382,2.6988zM147.142,25.088l0.06,-0.096l1.777,-2.848l0.499,-0.8h-6.08l-1.837,2.944l-0.439,0.704l-0.06,0.096h0.943zM147.045,25.888l-0.031,-0.096h-6.08l0.031,0.096l0.228,0.704l1.533,4.736h6.08l-0.259,-0.8zM129.386,31.9624l2.888,-3.0172l0.301,-2.138zM132.919,24.3615l0.438,-3.1135h-1.529zM126.212,24.992l0.034,0.096h6.08l-0.034,-0.096l-0.247,-0.704l-1.031,-2.944h-6.08l0.28,0.8zM126.182,25.792l-0.06,0.096l-2.869,4.64l-0.495,0.8h6.08l2.929,-4.736l0.435,-0.704l0.06,-0.096h-0.941zM36.6458,9.856l0.1684,0.8l0.7276,3.456h4.896l-0.1685,-0.8l-0.7275,-3.456zM104.719,14.464h-0.809l0.125,-0.8l0.035,-0.224h10.784l-0.125,0.8l-0.035,0.224zM167.072,14.72h-5.178l-8.735,16.768l-0.417,0.8h6.08l8.735,-16.768l0.417,-0.8zM89.1489,15.648h-14.9991l-0.3289,2.208l-0.1191,0.8h15.808l0.3288,-2.208l0.1192,-0.8zM104.269,17.664h-0.807l0.106,-0.8l0.022,-0.16h10.784l-0.107,0.8l-0.021,0.16zM113.12,19.904h0.806l-0.097,0.8l-0.031,0.256h-10.784l0.097,-0.8l0.031,-0.256zM82.9178,28.704h-5.44l0.1194,-0.8l0.2006,-1.344h5.44l-0.1194,0.8zM82.3095,27.36h-3.8223l-0.0812,0.544h3.8223z"></path></g></g><g ><g filter="url(#filter_29_6)"><path     fill="#FFFFFF"  d="M75.9398 68.1L74.2038 68.1L74.2038 63.396L70.7318 63.396L70.7318 68.1L68.9958 68.1L68.9958 61.716L75.9398 61.716L75.9398 68.1ZM68.8978 55.64L76.0378 55.64L76.0378 57.306L68.8978 57.306L68.8978 55.64ZM69.5698 57.838L75.3658 57.838L75.3658 61.184L69.5698 61.184L69.5698 57.838ZM70.9838 64.796L71.4038 64.796L71.0818 63.662L72.1318 63.662L72.4538 64.796L72.4818 64.796L72.8038 63.662L73.8538 63.662L73.5318 64.796L73.9518 64.796L73.9518 66.28L73.2238 66.28L73.2238 68.1L71.7118 68.1L71.7118 66.28L70.9838 66.28L70.9838 64.796ZM73.5598 59.854L73.5598 59.168L71.3758 59.168L71.3758 59.854L73.5598 59.854ZM76.1778 66.266L77.9837 66.266L77.9837 63.942L76.3178 63.942L76.3178 56.634L77.9978 56.634L77.9978 55.444L79.7058 55.444L79.7058 56.634L81.3438 56.634L81.3438 63.942L79.6638 63.942L79.6638 66.266L80.4198 66.266L80.2798 64.516L81.4837 64.516L81.7638 67.904L76.1778 67.904L76.1778 66.266ZM78.1938 62.178L78.1938 58.398L77.5078 58.398L77.5078 62.178L78.1938 62.178ZM80.1538 62.178L80.1538 58.398L79.4678 58.398L79.4678 62.178L80.1538 62.178ZM95.2458 63.746L95.2458 68.016L87.0558 68.016L87.0558 63.746L95.2458 63.746ZM82.7578 60.134Q84.3818 58.272 85.0258 55.5L86.8598 55.5Q86.5518 57.376 85.8238 58.972L85.8238 68.17L84.0038 68.17L84.0038 61.8Q83.4578 62.43 82.7578 63.018L82.7578 60.134ZM86.7337 56.522L90.2478 56.522L90.2478 55.43L92.0677 55.43L92.0677 56.522L95.5677 56.522L95.5677 58.174L86.7337 58.174L86.7337 56.522ZM87.2938 61.394L95.0078 61.394L95.0078 62.878L87.2938 62.878L87.2938 61.394ZM87.2938 59.042L95.0078 59.042L95.0078 60.526L87.2938 60.526L87.2938 59.042ZM93.4398 66.56L93.4398 65.202L88.8618 65.202L88.8618 66.56L93.4398 66.56ZM96.6178 68.1Q96.9678 66.672 97.1078 65.307Q97.2478 63.942 97.2478 62.178L97.2478 55.668L101.616 55.668L101.616 68.1L100.006 68.1L100.006 64.572L98.7878 64.572Q98.6618 66.476 98.3258 68.1L96.6178 68.1ZM100.006 62.85L100.006 61.016L98.8578 61.016L98.8578 62.178L98.8578 62.85L100.006 62.85ZM100.006 59.294L100.006 57.46L98.8578 57.46L98.8578 59.294L100.006 59.294ZM102.47 55.71L109.218 55.71L108.756 60.176L105.326 60.176L105.326 58.538L107.146 58.538L107.244 57.46L104.22 57.46L104.22 60.82L109.638 60.82Q109.036 63.298 107.958 65.356L109.638 68.1L107.888 68.1L107.09 66.798Q106.6 67.526 106.11 68.1L102.47 68.1L102.47 55.71ZM104.22 67.89Q105.214 66.77 106.026 65.524L104.262 62.458L104.22 62.458L104.22 67.89ZM106.894 64.012Q107.272 63.284 107.58 62.458L106.04 62.458L106.894 64.012ZM113.642 64.404L113.642 66.7L111.346 66.7L111.346 64.404L113.642 64.404ZM115.364 63.326Q116.946 62.276 118.045 60.974Q119.144 59.672 119.844 57.992L117.604 57.992L117.604 59.42L115.784 59.42L115.784 56.256L120.418 56.256Q120.558 55.766 120.67 55.22L122.546 55.22Q122.406 55.92 122.308 56.256L127.824 56.256L127.824 59.42L126.004 59.42L126.004 57.992L123.708 57.992Q123.75 61.072 124.926 63.074L126.284 60.078L128.062 60.078L126.662 63.172L124.982 63.172Q126.074 64.964 128.104 65.944L128.104 68.072Q125.094 66.714 123.561 64.145Q122.028 61.576 121.972 57.992L121.776 57.992Q120.768 60.694 118.99 62.682L119.662 62.682L119.662 66.294L121.37 66.294L121.37 68.1L117.856 68.1L117.856 63.816Q116.792 64.768 115.364 65.552L115.364 63.326ZM141.852 63.746L141.852 68.016L133.662 68.016L133.662 63.746L141.852 63.746ZM129.364 60.134Q130.988 58.272 131.632 55.5L133.466 55.5Q133.158 57.376 132.43 58.972L132.43 68.17L130.61 68.17L130.61 61.8Q130.064 62.43 129.364 63.018L129.364 60.134ZM133.34 56.522L136.854 56.522L136.854 55.43L138.674 55.43L138.674 56.522L142.174 56.522L142.174 58.174L133.34 58.174L133.34 56.522ZM133.9 61.394L141.614 61.394L141.614 62.878L133.9 62.878L133.9 61.394ZM133.9 59.042L141.614 59.042L141.614 60.526L133.9 60.526L133.9 59.042ZM140.046 66.56L140.046 65.202L135.468 65.202L135.468 66.56L140.046 66.56ZM143.182 63.718Q145.114 61.338 146.192 58.678L143.686 58.678L143.686 56.942L145.282 56.942L145.282 55.43L147.074 55.43L147.074 56.942L148.628 56.942Q148.222 58.664 147.424 60.456L147.088 61.142L147.088 61.226L148.656 61.954L148.656 63.886L147.088 63.158L147.088 68.1L145.24 68.1L145.24 63.718L143.182 63.718ZM148.544 66.028L151.372 66.028L151.372 60.372L148.964 60.372L148.964 58.538L151.372 58.538L151.372 55.542L153.22 55.542L153.22 58.538L155.768 58.538L155.768 60.372L153.22 60.372L153.22 66.028L156.188 66.028L156.188 67.862L148.544 67.862L148.544 66.028ZM168.858 61.45L158.75 61.45L158.75 55.626L168.858 55.626L168.858 61.45ZM157.364 66.49L158.4 66.364L158.4 61.786L160.22 61.786L160.22 62.85L163.706 62.85L163.706 64.53L160.22 64.53L160.22 66.126L163.888 65.664L163.888 67.358L157.364 68.184L157.364 66.49ZM167.052 59.952L167.052 59.21L160.556 59.21L160.556 59.952L167.052 59.952ZM167.052 57.88L167.052 57.138L160.556 57.138L160.556 57.88L167.052 57.88ZM164.798 61.786L166.618 61.786L166.618 63.2Q168.284 62.78 170.104 62.206L170.104 63.9Q168.298 64.488 166.618 64.88L166.618 66.238L170.244 66.238L170.244 68.016L164.798 68.016L164.798 61.786ZM176.712 66.896L171.714 66.882L171.714 55.78L176.712 55.794L176.712 66.896ZM174.948 65.174L174.948 62.094L173.478 62.08L173.478 65.16L174.948 65.174ZM174.948 60.414L174.948 57.516L173.478 57.502L173.478 60.4L174.948 60.414ZM176.866 68.1Q177.398 66.7 177.601 65.293Q177.804 63.886 177.804 62.178L177.804 55.668L183.74 55.668L183.74 68.1L181.962 68.1L181.962 64.572L179.498 64.572Q179.316 66.406 178.84 68.1L176.866 68.1ZM181.962 62.85L181.962 61.016L179.596 61.016L179.596 62.178L179.596 62.85L181.962 62.85ZM181.962 59.294L181.962 57.46L179.596 57.46L179.596 59.294L181.962 59.294ZM186.176 60.036L190.894 60.036L190.894 58.342L185.504 58.342L185.504 56.55L190.894 56.55L190.894 55.22L192.714 55.22L192.714 56.55L198.104 56.55L198.104 58.342L192.714 58.342L192.714 60.036L197.432 60.036L197.432 66.98L194.52 66.98L194.52 65.188L195.64 65.188L195.64 61.842L192.714 61.842L192.714 68.1L190.894 68.1L190.894 61.842L187.968 61.842L187.968 66.98L186.176 66.98L186.176 60.036ZM205.356 66.154Q206.574 65.538 207.141 64.761Q207.708 63.984 207.848 63.018L205.314 63.018L205.314 61.31L207.89 61.31L207.89 58.916L205.608 58.916L205.608 57.208L206.49 57.208L206.112 55.5L207.82 55.5L208.198 57.208L209.57 57.208L209.948 55.5L211.656 55.5L211.278 57.208L212.104 57.208L212.104 58.916L209.682 58.916L209.682 61.31L212.258 61.31L212.258 63.018L209.878 63.018Q210.914 63.942 211.509 65.16Q212.104 66.378 212.314 68.086L210.55 68.086Q210.438 66.994 210.102 66.203Q209.766 65.412 209.136 64.824Q208.142 67.12 205.356 68.268L205.356 66.154ZM199.504 65.79L200.092 65.678L200.092 57.264L199.504 57.264L199.504 55.654L205.496 55.654L205.496 57.264L204.908 57.264L204.908 68.1L203.242 68.1L203.242 66.798L199.504 67.498L199.504 65.79ZM203.242 65.09L203.242 63.648L201.758 63.648L201.758 65.37L203.242 65.09ZM203.242 62.038L203.242 60.456L201.758 60.456L201.758 62.038L203.242 62.038ZM203.242 58.846L203.242 57.264L201.758 57.264L201.758 58.846L203.242 58.846ZM213.182 63.718Q215.114 61.338 216.192 58.678L213.686 58.678L213.686 56.942L215.282 56.942L215.282 55.43L217.074 55.43L217.074 56.942L218.628 56.942Q218.222 58.664 217.424 60.456L217.088 61.142L217.088 61.226L218.656 61.954L218.656 63.886L217.088 63.158L217.088 68.1L215.24 68.1L215.24 63.718L213.182 63.718ZM218.544 66.028L221.372 66.028L221.372 60.372L218.964 60.372L218.964 58.538L221.372 58.538L221.372 55.542L223.22 55.542L223.22 58.538L225.768 58.538L225.768 60.372L223.22 60.372L223.22 66.028L226.188 66.028L226.188 67.862L218.544 67.862L218.544 66.028Z"></path><path fill-rule="evenodd"  fill="rgba(225, 195, 106, 1)"  d="M117.832,60.12h-2.748v-4.564h4.794c0.03733,-0.1548 0.07267,-0.3137 0.106,-0.4767l0.115,-0.5593h3.301l-0.168,0.8373c-0.01333,0.0688 -0.02667,0.13503 -0.04,0.1987h5.332v3.822h0.559c0.87533,-1.1016 1.49767,-2.44707 1.867,-4.0364l0.126,-0.5416h3.214l-0.133,0.8134c-0.012,0.0698 -0.024,0.13933 -0.036,0.2086h2.033v-1.092h3.22v1.092h3.5v3.052h-0.56v4.172h0.238v0.3374l0.086,-0.1066c1.008,-1.24173 1.835,-2.54133 2.481,-3.8988h-2.133v-3.136h1.596v-1.512h3.192v1.512h1.738l-0.203,0.8606c-0.05733,0.24427 -0.12067,0.4894 -0.19,0.7354h1.553v-2.996h3.248v2.996h2.548v3.234h-2.548v4.256h2.968v0.5147l0.391,-0.0476l0.421,-0.0511v-4.658h0.35v-6.16h11.508v6.7173c0.11133,-0.03453 0.223,-0.0695 0.335,-0.1049l0.911,-0.2872v3.1571l-0.484,0.1573c-1.03,0.33553 -2.03067,0.6241 -3.002,0.8657v0.1067h3.626v3.178h-6.846v-0.679l-7.434,0.9412v-0.4162h-8.82v-3.234h2.828v-4.256h-2.254l0.938,0.4352v3.4756l-1.568,-0.728v4.5452h-3.248v-4.382h-1.988v4.298h-9.422v0.154h-3.22v-5.3972c-0.032,0.02713 -0.064,0.0542 -0.096,0.0812l-1.15,0.9662v-4.0746l-1.551,3.4264h-0.718c0.55267,0.58013 1.22367,1.06067 2.013,1.4416l0.396,0.191v3.6512l-0.988,-0.4457c-2.14067,-0.96567 -3.75933,-2.3678 -4.856,-4.2064c-0.73267,-1.22787 -1.22733,-2.61377 -1.484,-4.1577c-0.33533,0.61867 -0.70667,1.20427 -1.114,1.7568v3.4912h1.708v3.206h-4.914v-3.5381c-0.45133,0.31767 -0.93633,0.6189 -1.455,0.9037l-1.037,0.5693v-3.7844l0.313,-0.2077c0.99867,-0.66313 1.843,-1.40323 2.533,-2.2203c0.11067,-0.13107 0.218,-0.26523 0.322,-0.4025zM118.304,59.4428c0.154,-0.2418 0.29967,-0.49207 0.437,-0.7508h-0.437zM118.304,57.992h1.54c-0.1,0.23907 -0.20567,0.4724 -0.317,0.7c-0.412,0.8386 -0.906,1.59927 -1.482,2.282c-0.73267,0.868 -1.62633,1.652 -2.681,2.352v2.226c0.24067,-0.1324 0.474,-0.26837 0.7,-0.4079c0.38667,-0.2394 0.75067,-0.48937 1.092,-0.7499c0.24467,-0.18727 0.478,-0.38 0.7,-0.5782v4.284h3.514v-1.806h-1.708v-3.612h-0.672c0.202,-0.2264 0.397,-0.45973 0.585,-0.7c0.68133,-0.8736 1.264,-1.839 1.748,-2.8962c0.16133,-0.35333 0.312,-0.7169 0.452,-1.0907c0,-0.00107 0.00033,-0.0021 0.001,-0.0031h0.196c0,0.02453 0.00033,0.04907 0.001,0.0736c0.008,0.38967 0.029,0.77027 0.063,1.1418c0.172,1.8768 0.68033,3.52267 1.525,4.9376c0.89933,1.50747 2.18033,2.7022 3.843,3.5842c0.226,0.12007 0.45933,0.23433 0.7,0.3428v-2.128c-1.076,-0.51953 -1.95467,-1.2102 -2.636,-2.072c-0.02867,-0.0366 -0.057,-0.0735 -0.085,-0.1107c-0.14267,-0.18853 -0.27633,-0.38497 -0.401,-0.5893h1.68l1.083,-2.394l0.298,-0.658l0.019,-0.042h-1.778l-0.019,0.042l-0.976,2.1519l-0.09,0.2001l-0.273,0.602c-0.11333,-0.19313 -0.219,-0.3938 -0.317,-0.602c-0.03067,-0.0652 -0.06033,-0.13113 -0.089,-0.1978c-0.44467,-1.021 -0.707,-2.21507 -0.787,-3.5822c-0.01333,-0.22853 -0.02167,-0.46187 -0.025,-0.7h1.596h0.7v1.428h1.82v-3.164h-5.516c0.02667,-0.09167 0.05567,-0.20367 0.087,-0.336c0.02533,-0.10787 0.05267,-0.2292 0.082,-0.364c0.022,-0.10393 0.045,-0.21593 0.069,-0.336h-1.876c-0.07467,0.364 -0.15867,0.70933 -0.252,1.036h-4.634v3.164h1.82v-1.428zM125.496,60.12h-0.192v-1.428h-0.87c0.06133,0.99893 0.225,1.89467 0.491,2.6872zM133.98,56.522h-0.64v1.652h8.834v-1.652h-3.5v-1.092h-1.82v1.092zM132.64,58.4843c0.292,-0.7208 0.52333,-1.48223 0.694,-2.2843c0.02667,-0.12507 0.05167,-0.25107 0.075,-0.378c0.02,-0.10667 0.039,-0.214 0.057,-0.322h-1.834c-0.42933,1.848 -1.18533,3.39267 -2.268,4.634v2.884c0.19067,-0.16007 0.37267,-0.32247 0.546,-0.4872c0.052,-0.04953 0.10333,-0.09923 0.154,-0.1491c0.19333,-0.1908 0.37533,-0.3847 0.546,-0.5817v6.37h1.82v-9.198c0.07333,-0.16047 0.14333,-0.32303 0.21,-0.4877zM133.13,59.1219v3.9241h0.07v-4.0854c-0.02333,0.054 -0.04667,0.10777 -0.07,0.1613zM141.852,64.2457v-0.4997h-8.19v4.27h8.19zM145.434,58.678h0.758c-0.09533,0.23493 -0.19567,0.46827 -0.301,0.7c-0.57333,1.26193 -1.29467,2.47527 -2.164,3.64c-0.17533,0.23527 -0.357,0.4686 -0.545,0.7h1.358h0.7v4.382h1.848v-4.942l0.7,0.325l0.168,0.078l0.7,0.325v-1.932l-1.568,-0.728v-0.084l0.336,-0.686c0.33,-0.74193 0.61,-1.47487 0.84,-2.1988c0.044,-0.14 0.08633,-0.27973 0.127,-0.4192c0.01933,-0.06547 0.038,-0.1308 0.056,-0.196c0.066,-0.23433 0.12633,-0.46767 0.181,-0.7h-1.554v-1.512h-1.792v1.512h-1.596v1.736h0.7zM148.264,60.2772c-0.06467,0.1542 -0.13167,0.30873 -0.201,0.4636l-0.005,0.0116l-0.061,0.1241l0.267,0.1237zM151.372,57.838v0.7h-0.7h-1.708v1.834h0.7h1.008h0.7v5.656h-2.828v1.834h7.644v-1.834h-2.968v-5.656h0.7h1.148h0.7v-1.834h-2.548v-2.996h-1.848zM158.4,66.364l-1.036,0.126v1.694l0.7,-0.0886l5.824,-0.7374v-1.694l-0.7,0.0882l-2.268,0.2856l-0.7,0.0882v-1.596h3.486v-1.68h-3.486v-1.064h-1.82zM160.92,61.45h7.938v-5.824h-0.7h-8.708h-0.7v5.824zM166.618,62.15v-0.364h-1.82v6.23h5.446v-1.778h-3.626v-1.358c1.12,-0.26133 2.282,-0.588 3.486,-0.98v-1.694c-0.23533,0.0742 -0.46867,0.14647 -0.7,0.2168c-0.714,0.21693 -1.40933,0.4155 -2.086,0.5957c-0.236,0.06273 -0.46933,0.12323 -0.7,0.1815zM167.841,62.15h-0.523v0.1438c0.17333,-0.04673 0.34767,-0.09467 0.523,-0.1438zM161.732,65.23h-0.812v0.1023zM190.194,59.042h-5.39v-3.192h5.39v-1.33h3.22v1.33h5.39v-0.896h6.47l-0.034,-0.154h3.142l0.378,1.708h0.248l0.378,-1.708h3.142l-0.378,1.708h0.654v3.108h-2.422v0.994h2.576v2.2635c0.86467,-1.11907 1.585,-2.28423 2.161,-3.4955h-2.133v-3.136h1.596v-1.512h3.192v1.512h1.738l-0.203,0.8606c-0.05733,0.24413 -0.12067,0.48927 -0.19,0.7354h1.553v-2.996h3.248v2.996h2.548v3.234h-2.548v4.256h2.968v3.234h-9.044v-3.234h2.828v-4.256h-2.254l0.938,0.4352v3.4756l-1.568,-0.728v4.5452h-3.248v-4.382h-2.632c0.08067,0.14193 0.15733,0.28683 0.23,0.4347c0.43067,0.88233 0.721,1.93163 0.871,3.1479l0.096,0.7854h-3.187l-0.065,-0.6286c-0.06733,-0.658 -0.19933,-1.21823 -0.396,-1.6807c-0.05867,-0.1392 -0.126,-0.27267 -0.202,-0.4004c-0.79733,1.2232 -2.00833,2.1695 -3.633,2.8389l-0.966,0.3983v-0.5135h-2.114v-1.1587l-3.738,0.7v-3.1306l0.569,-0.1083l0.019,-0.0037v-7.1347h-0.588v1.078h-5.39v0.294h4.718v8.344h-4.312v-3.192h1.12v-1.946h-1.526v6.258h-3.22v-6.258h-1.526v5.138h-3.192v-8.344h4.718zM190.894,59.336v0.7h-4.718v6.944h0.7h0.392h0.7v-5.138h2.926v6.258h1.82v-6.258h2.926v0.7v2.646h-1.12v1.792h0.7h1.512h0.7v-6.944h-4.718v-1.694h5.39v-1.792h-5.39v-1.33h-1.82v1.33h-5.39v1.792h5.39zM205.496,55.9561v-0.3021h-5.992v1.61h0.588v8.414l-0.588,0.112v1.708l0.7,-0.1311l2.338,-0.4378l0.7,-0.1311v1.302h1.666v-10.836h0.588zM205.608,57.964v0.952h2.282v2.394h-2.576v1.708h2.534c-0.03533,0.24227 -0.09067,0.4756 -0.166,0.7c-0.12533,0.3722 -0.30567,0.71987 -0.541,1.043c-0.338,0.46287 -0.849,0.88287 -1.533,1.26c-0.082,0.04493 -0.166,0.08927 -0.252,0.133v2.114c0.08533,-0.03513 0.16933,-0.07107 0.252,-0.1078c0.15333,-0.06827 0.30267,-0.1393 0.448,-0.2131c1.226,-0.62407 2.14133,-1.44697 2.746,-2.4687c0.12467,-0.20973 0.236,-0.42787 0.334,-0.6544c0.18867,0.1764 0.35767,0.3665 0.507,0.5703c0.18267,0.24907 0.33567,0.51863 0.459,0.8087c0.224,0.52733 0.37333,1.155 0.448,1.883h1.764c-0.03,-0.24067 -0.06533,-0.474 -0.106,-0.7c-0.15333,-0.8436 -0.38633,-1.5856 -0.699,-2.226c-0.25467,-0.521 -0.56967,-1.00167 -0.945,-1.442c-0.21,-0.24593 -0.43867,-0.47927 -0.686,-0.7h2.38v-1.708h-2.576v-2.394h2.422v-1.708h-0.826l0.155,-0.7l0.068,-0.308l0.155,-0.7h-1.708l-0.378,1.708h-1.372l-0.378,-1.708h-1.708l0.084,0.3795l0.071,0.3205l0.068,0.308l0.155,0.7h-0.882zM211.455,63.718c0.132,0.181 0.25567,0.3676 0.371,0.5598l0.454,-0.5598zM205.608,65.2082c0.42333,-0.2696 0.74567,-0.5562 0.967,-0.8598c0.14533,-0.19867 0.265,-0.4088 0.359,-0.6304h-1.326zM205.608,60.61h1.582v-0.994h-1.582zM215.434,58.678h0.758c-0.09533,0.23493 -0.19567,0.46827 -0.301,0.7c-0.57333,1.26193 -1.29467,2.47527 -2.164,3.64c-0.176,0.23533 -0.35767,0.46867 -0.545,0.7h1.358h0.7v4.382h1.848v-4.942l0.7,0.325l0.168,0.078l0.7,0.325v-1.932l-1.568,-0.728v-0.084l0.336,-0.686c0.33,-0.74193 0.61,-1.4749 0.84,-2.1989c0.044,-0.14007 0.08633,-0.27977 0.127,-0.4191c0.01933,-0.065 0.038,-0.13033 0.056,-0.196c0.066,-0.2344 0.12633,-0.46773 0.181,-0.7h-1.554v-1.512h-1.792v1.512h-1.596v1.736h0.7zM218.264,60.2772c-0.06467,0.1542 -0.13167,0.30873 -0.201,0.4636l-0.005,0.0116l-0.061,0.1241l0.267,0.1237zM221.372,57.838v0.7h-0.7h-1.708v1.834h0.7h1.008h0.7v5.656h-2.828v1.834h7.644v-1.834h-2.968v-5.656h0.7h1.148h0.7v-1.834h-2.548v-2.996h-1.848zM85.0258,55.5c-0.42933,1.848 -1.18533,3.39267 -2.268,4.634v2.884c0.19053,-0.16007 0.37253,-0.32247 0.546,-0.4872c0.05207,-0.04953 0.1034,-0.09923 0.154,-0.1491c0.19327,-0.1908 0.37527,-0.3847 0.546,-0.5817v6.37h1.82v-9.198c0.07313,-0.16047 0.14313,-0.32303 0.21,-0.4877c0.2924,-0.7208 0.52383,-1.48223 0.6943,-2.2843c0.0266,-0.125 0.0517,-0.251 0.0753,-0.378c0.01987,-0.10667 0.03867,-0.214 0.0564,-0.322h-0.7099zM83.3038,63.4728c-0.03173,0.02713 -0.06367,0.0542 -0.0958,0.0812l-1.0299,0.8651l0.3459,4.1849h-5.8842v0.196h-8.344v-7.784h0.574v-3.01h-0.672v-3.066h8.54v0.994h0.56v-1.19h3.108v1.19h1.638v7.882h0.014v-3.9444l0.1724,-0.1977c1.00613,-1.1536 1.7107,-2.5977 2.1137,-4.3323l0.1258,-0.5416h3.2144l-0.1336,0.8134c-0.01147,0.0698 -0.02333,0.13933 -0.0356,0.2086h2.0329v-1.092h3.22v1.092h3.5v3.052h-0.56v4.172h0.238v4.8551c0.2214,-0.9094 0.3766,-1.7979 0.4656,-2.6655c0.09093,-0.88627 0.1364,-1.90547 0.1364,-3.0576v-7.21h5.7682v0.042h7.678l-0.529,5.11h1.063l-0.21,0.8653c-0.38067,1.56633 -0.90033,3.01283 -1.559,4.3395l2.128,3.4752h-3.391l-0.453,-0.7391c-0.13333,0.1724 -0.267,0.33693 -0.401,0.4936l-0.209,0.2455h-2.085l-0.828,0.9333v-0.9333h-4.2142v-2.3218c-0.07973,0.61187 -0.17793,1.19973 -0.2946,1.7636l-0.1154,0.5582h-3.1703l0.0206,-0.084h-9.2223v0.154h-3.22zM86.5238,63.046h0.07v-4.0854c-0.023,0.054 -0.04633,0.10777 -0.07,0.1613zM86.9,58.174h8.6677v-1.652h-3.5v-1.092h-1.8199v1.092h-3.5141v1.652zM100.006,65.272v2.828h1.61v-12.432h-0.7h-3.6682v6.51c0,1.176 -0.04667,2.219 -0.14,3.129c-0.07033,0.68573 -0.18043,1.3834 -0.3303,2.093c-0.049,0.23207 -0.10223,0.4654 -0.1597,0.7h1.708c0.224,-1.08267 0.378,-2.25867 0.462,-3.528h1.2182zM103.52,68.1h2.59c0.18,-0.211 0.36,-0.4376 0.54,-0.6798c0.14667,-0.19707 0.29333,-0.40447 0.44,-0.6222l0.4,0.6535l0.398,0.6485h1.75l-0.429,-0.7l-1.251,-2.044c0.616,-1.17587 1.11533,-2.45453 1.498,-3.836c0.064,-0.23047 0.12467,-0.4638 0.182,-0.7h-5.418v-3.36h3.024l-0.064,0.7l-0.034,0.378h-1.82v1.638h0.7h2.73l0.006,-0.056l0.383,-3.71l0.073,-0.7h-6.048h-0.7v12.39zM104.641,67.4c-0.13733,0.16527 -0.27767,0.3286 -0.421,0.49v-5.432h0.042l0.658,1.1437l1.106,1.9223c-0.344,0.52807 -0.71267,1.03917 -1.106,1.5333c-0.092,0.1152 -0.185,0.22943 -0.279,0.3427zM104.92,65.899c0.096,-0.13293 0.19,-0.26707 0.282,-0.4024l-0.282,-0.4913zM81.4942,64.642l-0.0105,-0.126h-1.2039l0.01,0.126l0.046,0.574l0.028,0.35l0.056,0.7h-0.756v-2.324h0.7h0.28h0.7v-7.308h-1.638v-1.19h-1.708v1.19h-1.68v7.308h0.322h0.378h0.266h0.6999v2.324h-0.6999h-1.106v1.638h5.586l-0.0579,-0.7zM76.6398,65.566h0.644v-0.924h-0.644zM75.9398,64.642v-2.926h-6.944v6.384h1.736v-4.704h3.472v0.7v4.004h1.736zM73.5038,66.28h0.448v-1.484h-0.42l0.1232,-0.434l0.0755,-0.266l0.1233,-0.434h-1.05l-0.1233,0.434l-0.1963,0.6914l-0.0024,0.0086h-0.028l-0.0025,-0.0086l-0.1963,-0.6914l-0.1232,-0.434h-1.05l0.1232,0.434l0.0755,0.266l0.1233,0.434h-0.42v1.484h0.028h0.7v1.82h1.512v-1.82h0.028zM75.3658,61.016v-3.178h-5.796v3.346h5.796zM75.6178,57.306h0.42v-1.666h-0.7h-5.74h-0.7v1.666zM171.014,67.58v-12.502l6.09,0.0171v-0.1271h7.336v13.832h-3.178v-3.528h-1.139c-0.13267,1.0386 -0.33567,2.0444 -0.609,3.0174l-0.144,0.5106h-3.519l0.36,-0.9487c0.03267,-0.0854 0.06433,-0.17087 0.095,-0.2564zM176.711,66.896h0.001v-11.102l-4.298,-0.012l-0.7,-0.002v11.102v0l4.298,0.012l0.522,0.0015zM178.84,68.1c0.31733,-1.12933 0.53667,-2.30533 0.658,-3.528h2.464v3.528h1.778v-12.432h-5.936v6.51c0,1.13867 -0.06767,2.177 -0.203,3.115c-0.04867,0.338 -0.11167,0.67567 -0.189,1.013c-0.084,0.365 -0.18433,0.72967 -0.301,1.094c-0.02067,0.06547 -0.04233,0.1311 -0.065,0.1969c-0.05667,0.1678 -0.11667,0.3355 -0.18,0.5031h0.746zM166.352,57.138h0.7v0.742h-0.7h-5.796v-0.742zM202.458,57.964v0.182h0.084v-0.182zM202.542,57.264h0.7v1.582h-1.484v-1.582zM100.006,58.594v0.7h-1.1482v-1.834h1.1482v0.7zM181.962,58.16v1.134h-2.366v-1.834h2.366zM180.296,58.16v0.434h0.966v-0.434zM174.948,60.414l-0.7,-0.0067l-0.77,-0.0073v-2.898l0.7,0.0067l0.77,0.0073v2.198zM174.248,59.7073v-1.4979l-0.07,-0.0007v1.4979zM77.5078,58.398h0.686v3.78h-0.686zM79.4678,58.398h0.686v3.78h-0.686zM94.3078,59.042h-7.014v1.484h7.714v-1.484zM140.914,59.042h-7.014v1.484h7.714v-1.484zM73.5598,59.854h-2.184v-0.686h2.184zM167.052,59.91v0.042h-0.7h-5.796v-0.742h6.496zM203.242,61.156v0.882h-0.7h-0.784v-1.582h0.7h0.084h0.7zM202.458,61.156v0.182h0.084v-0.182zM100.006,62.15v0.7h-1.1482v-1.834h1.1482v0.7zM181.962,61.716v1.134h-2.366v-1.834h2.366zM180.296,61.716v0.434h0.966v-0.434zM94.3078,61.394h-7.014v1.484h7.714v-1.484zM140.914,61.394h-7.014v1.484h7.714v-1.484zM174.948,64.474v0.7l-0.7,-0.0067l-0.77,-0.0073v-3.08l0.7,0.0067l0.77,0.0073zM174.248,64.4673v-1.6799l-0.07,-0.0007v1.6799zM107.265,63.2345c-0.11733,0.26787 -0.241,0.52703 -0.371,0.7775l-0.411,-0.7478l-0.059,-0.1062l-0.384,-0.7h1.54c-0.08933,0.23953 -0.183,0.47287 -0.281,0.7c-0.01133,0.02547 -0.02267,0.05097 -0.034,0.0765zM203.242,65.09l-0.784,0.1479l-0.7,0.1321v-1.722h1.484zM202.542,64.348h-0.084v0.1776l0.084,-0.0159zM110.646,67.4v-3.696h3.696v3.696zM95.2458,64.446v-0.7h-8.19v4.27h8.19zM113.642,65.104v-0.7h-2.296v2.296h2.296zM92.7398,65.202h0.7v0.658v0.7h-4.578v-1.358h0.7zM140.046,65.902v0.658h-4.578v-1.358h0.7h3.178h0.7z"></path></g></g><g ><g filter="url(#filter_29_7)"><path     fill="#FFFFFF"  d="M195.75 29Q194.566 27.08 193.958 25.232Q193.35 23.384 193.35 21.416Q193.35 19.432 193.958 17.584Q194.566 15.736 195.75 13.64L198.086 13.64Q196.95 15.672 196.382 17.568Q195.814 19.464 195.814 21.32Q195.814 23.192 196.382 25.08Q196.95 26.968 198.086 29L195.75 29ZM213.334 13.144Q212.726 15.576 211.326 17.344Q209.926 19.112 207.574 20.248L213.366 20.248L213.366 27.304L201.462 27.304L201.462 22.008Q200.198 22.184 199.334 22.264L199.334 20.344Q203.11 19.88 205.51 18.952L204.086 16.248Q202.358 17.896 199.478 18.712L199.478 16.632Q201.014 16.056 202.054 15.208Q203.094 14.36 203.782 13.144L213.334 13.144ZM211.286 25.256L211.286 22.296L203.542 22.296L203.542 25.256L211.286 25.256ZM206.246 16.104L207.302 18.104Q209.286 16.952 210.342 15.144L205.062 15.144Q204.71 15.64 204.246 16.104L206.246 16.104ZM218.342 13.736L217.958 12.68L220.134 12.68L220.518 13.736L224.55 13.736L224.934 12.68L227.11 12.68L226.726 13.736L228.918 13.736L228.918 21.992L223.59 21.992L223.59 23.384L230.006 23.384L230.006 25.432L223.59 25.432L223.59 27.4L221.478 27.4L221.478 25.432L215.062 25.432L215.062 23.384L221.478 23.384L221.478 21.992L216.15 21.992L216.15 13.736L218.342 13.736ZM221.51 20.008L221.51 18.792L218.214 18.792L218.214 20.008L221.51 20.008ZM221.51 16.904L221.51 15.72L218.214 15.72L218.214 16.904L221.51 16.904ZM226.854 20.008L226.854 18.792L223.558 18.792L223.558 20.008L226.854 20.008ZM226.854 16.904L226.854 15.72L223.558 15.72L223.558 16.904L226.854 16.904ZM231.878 27.4Q233.238 25.912 234.142 24.52Q235.046 23.128 235.59 21.672L233.782 20.712Q233.574 21.432 233.302 22.152L231.014 22.152Q232.646 17.72 233.094 13L235.318 13Q235.222 14.056 235.158 14.568L238.694 14.568Q238.694 17.448 238.366 19.584Q238.038 21.72 237.182 23.632Q236.326 25.544 234.742 27.4L231.878 27.4ZM236.182 19.624Q236.486 18.264 236.582 16.648L234.742 16.648Q234.55 17.784 234.342 18.648L236.182 19.624ZM239.942 13L242.022 13L242.022 27.4L239.942 27.4L239.942 13ZM244.502 15.704Q245.606 19.864 245.75 24.376L243.814 24.376Q243.67 20.04 242.422 15.704L244.502 15.704ZM247.062 29Q248.198 26.968 248.766 25.08Q249.334 23.192 249.334 21.32Q249.334 19.464 248.766 17.568Q248.198 15.672 247.062 13.64L249.398 13.64Q250.582 15.736 251.19 17.584Q251.798 19.432 251.798 21.416Q251.798 23.384 251.19 25.232Q250.582 27.08 249.398 29L247.062 29Z"></path><path fill-rule="evenodd"  fill="rgba(225, 195, 106, 1)"  d="M216.15,13.736v8.256h5.328v1.392h-5.816h-0.6v2.048h6.416v1.368v0.6h2.112v-1.368v-0.6h6.416v-2.048h-6.416v-0.792v-0.6h5.328v-8.256h-2.192l0.166,-0.456l0.052,-0.144l0.166,-0.456h-2.176l-0.384,1.056h-4.032l-0.384,-1.056h-2.176l0.166,0.456l0.052,0.144l0.166,0.456h-1.592zM220.878,22.592h-5.328v-9.456h1.935l-0.384,-1.056h3.453l0.384,1.056h3.192l0.383,-1.056h3.453l-0.384,1.056h1.936v9.456h-5.328v0.192h6.416v3.248h-6.416v1.968h-3.312v-1.968h-6.416v-3.248h6.416zM234.834,21.95l-0.694,-0.3683c-0.086,0.26087 -0.17833,0.52163 -0.277,0.7823l-0.147,0.388h-3.563l0.298,-0.8073c1.07,-2.90593 1.75167,-5.9064 2.045,-9.0014l0.052,-0.5433h3.427l-0.06,0.6543c-0.03133,0.34813 -0.06033,0.6527 -0.087,0.9137h3.466v0.6c0,1.95053 -0.11167,3.6529 -0.335,5.1071c-0.22733,1.4774 -0.63733,2.8781 -1.23,4.2021c-0.594,1.32713 -1.43767,2.63123 -2.531,3.9123l-0.18,0.2105h-4.501l0.918,-1.0048c0.884,-0.9676 1.61867,-1.9016 2.204,-2.802c0.47667,-0.73467 0.875,-1.4824 1.195,-2.2432zM235.59,21.672c-0.36267,0.97067 -0.84533,1.92 -1.448,2.848c-0.48067,0.73967 -1.05767,1.49967 -1.731,2.28c-0.17133,0.19867 -0.349,0.39867 -0.533,0.6h2.864c1.056,-1.23733 1.86933,-2.49333 2.44,-3.768c0.57067,-1.27467 0.96533,-2.624 1.184,-4.048c0.19533,-1.2736 0.30333,-2.7456 0.324,-4.416c0.00267,-0.19727 0.004,-0.39727 0.004,-0.6h-3.536c0.02,-0.16007 0.04233,-0.36007 0.067,-0.6c0.01133,-0.11373 0.02367,-0.2364 0.037,-0.368c0.01733,-0.18287 0.036,-0.38287 0.056,-0.6h-2.224c-0.27867,2.93413 -0.90033,5.7848 -1.865,8.552c-0.07,0.20047 -0.14167,0.40047 -0.215,0.6h2.288c0.10733,-0.28527 0.20733,-0.57057 0.3,-0.8559c0.06333,-0.19467 0.12333,-0.38937 0.18,-0.5841l0.541,0.2873zM242.622,15.104h2.341l0.119,0.4461c0.74733,2.81753 1.16967,5.75313 1.267,8.8068l0.02,0.6191h-3.136l-0.019,-0.5801c-0.05867,-1.76047 -0.256,-3.52127 -0.592,-5.2824v8.8865h-3.28v-15.6h3.28zM242.622,16.4254c0.70667,2.6502 1.104,5.3004 1.192,7.9506h1.936c-0.00667,-0.20053 -0.01467,-0.40053 -0.024,-0.6c-0.12933,-2.79287 -0.53733,-5.48353 -1.224,-8.072h-2.08c0.05733,0.19993 0.113,0.39993 0.167,0.6c0.01133,0.04067 0.02233,0.08113 0.033,0.1214zM242.022,15.104v-2.104h-2.08v14.4h2.08zM209.762,19.648h4.204v8.256h-13.104v-5.2099c-0.56,0.07253 -1.051,0.1283 -1.473,0.1673l-0.655,0.0607v-3.1089l0.527,-0.0647c2.144,-0.26347 3.943,-0.63917 5.397,-1.1271l-0.75,-1.4228c-1.13867,0.91047 -2.561,1.60737 -4.267,2.0907l-0.763,0.2163v-3.2894l0.389,-0.146c0.96267,-0.36093 1.76533,-0.80333 2.408,-1.3272c0.63467,-0.5178 1.163,-1.1493 1.585,-1.8945l0.172,-0.3045h10.67l-0.186,0.7455c-0.42667,1.705 -1.13333,3.18067 -2.12,4.427c-0.56933,0.71867 -1.24733,1.3625 -2.034,1.9315zM208.845,20.248h-1.271c0.38733,-0.18713 0.75533,-0.38713 1.104,-0.6c1.06267,-0.6486 1.94533,-1.4166 2.648,-2.304c0.816,-1.03073 1.43033,-2.23073 1.843,-3.6c0.05867,-0.19653 0.11367,-0.39653 0.165,-0.6h-9.552c-0.45867,0.81067 -1.03467,1.49867 -1.728,2.064c-0.69333,0.56533 -1.552,1.04 -2.576,1.424v2.08c0.204,-0.05793 0.404,-0.11897 0.6,-0.1831c1.37867,-0.45233 2.54133,-1.06063 3.488,-1.8249c0.01933,-0.01547 0.03833,-0.03103 0.057,-0.0467c0.16067,-0.13187 0.315,-0.2683 0.463,-0.4093l0.24,0.456l0.05,0.0944l0.852,1.619l0.282,0.5346c-0.184,0.071 -0.37367,0.13997 -0.569,0.2069c-1.51,0.51627 -3.379,0.9113 -5.607,1.1851v1.92c0.186,-0.0172 0.386,-0.03777 0.6,-0.0617c0.28467,-0.0318 0.594,-0.06953 0.928,-0.1132c0.192,-0.02507 0.392,-0.0521 0.6,-0.0811v5.296h11.904v-7.056zM204.246,16.104c0.09867,-0.09867 0.19333,-0.19843 0.284,-0.2993c0.09,-0.0992 0.176,-0.19943 0.258,-0.3007c0.096,-0.11853 0.18733,-0.23853 0.274,-0.36h5.28c-0.12067,0.2064 -0.25033,0.4064 -0.389,0.6c-0.564,0.78667 -1.27733,1.46743 -2.14,2.0423c-0.16533,0.1098 -0.33567,0.2157 -0.511,0.3177v0l-0.281,-0.531l-0.775,-1.469h-1.179zM206.734,15.744l0.042,0.0799l0.755,1.4289c0.64867,-0.43887 1.20433,-0.9418 1.667,-1.5088zM192.75,21.416c0,-1.3868 0.21267,-2.72663 0.638,-4.0195c0.41733,-1.2694 1.03033,-2.61993 1.839,-4.0516l0.173,-0.3049h3.709l-0.5,0.8928c-0.73533,1.31633 -1.286,2.58547 -1.652,3.8074c-0.362,1.2078 -0.543,2.40107 -0.543,3.5798c0,1.18913 0.18067,2.38483 0.542,3.5871c0.366,1.21687 0.917,2.48357 1.653,3.8001l0.5,0.8928h-3.694l-0.176,-0.2851c-0.814,-1.32013 -1.431,-2.6186 -1.851,-3.8954c-0.42533,-1.29287 -0.638,-2.62737 -0.638,-4.0035zM248.734,21.32c0,-1.17873 -0.181,-2.372 -0.543,-3.5798c-0.366,-1.22193 -0.917,-2.49107 -1.653,-3.8074l-0.499,-0.8928h3.709l0.172,0.3049c0.80867,1.4316 1.422,2.78213 1.84,4.0516c0.42533,1.29293 0.638,2.63277 0.638,4.0195c0,1.37613 -0.21267,2.71063 -0.638,4.0035c-0.42,1.2768 -1.03733,2.57527 -1.852,3.8954l-0.175,0.2851h-3.694l0.499,-0.8928c0.736,-1.31653 1.287,-2.58323 1.653,-3.8001c0.362,-1.20227 0.543,-2.39797 0.543,-3.5871zM198.086,29c-0.11267,-0.20107 -0.221,-0.40107 -0.325,-0.6c-0.59733,-1.14147 -1.057,-2.24813 -1.379,-3.32c-0.37867,-1.25867 -0.568,-2.512 -0.568,-3.76c0,-1.23733 0.18933,-2.488 0.568,-3.752c0.322,-1.07647 0.78167,-2.1858 1.379,-3.328c0.104,-0.199 0.21233,-0.399 0.325,-0.6h-2.336c-0.78933,1.39733 -1.38667,2.712 -1.792,3.944c-0.40533,1.232 -0.608,2.50933 -0.608,3.832c0,1.312 0.20267,2.584 0.608,3.816c0.40533,1.232 1.00267,2.488 1.792,3.768zM249.398,29c0.78933,-1.28 1.38667,-2.536 1.792,-3.768c0.40533,-1.232 0.608,-2.504 0.608,-3.816c0,-1.32267 -0.20267,-2.6 -0.608,-3.832c-0.40533,-1.232 -1.00267,-2.54667 -1.792,-3.944h-2.336c0.112,0.201 0.22,0.401 0.324,0.6c0.59733,1.1422 1.05733,2.25153 1.38,3.328c0.37867,1.264 0.568,2.51467 0.568,3.752c0,1.248 -0.18933,2.50133 -0.568,3.76c-0.32267,1.07187 -0.78267,2.17853 -1.38,3.32c-0.104,0.19893 -0.212,0.39893 -0.324,0.6h0.685zM218.814,15.72h2.096h0.6v1.184h-3.296v-1.184zM226.854,16.32v0.584h-3.296v-1.184h0.6h2.096h0.6v0.584zM236.306,19.0107c-0.038,0.20853 -0.07933,0.41297 -0.124,0.6133l-0.551,-0.292l-1.289,-0.684c0.13867,-0.576 0.272,-1.24267 0.4,-2h1.84c-0.012,0.203 -0.02667,0.403 -0.044,0.6c-0.05333,0.61733 -0.13067,1.2049 -0.232,1.7627zM235.936,17.248h-0.69c-0.07067,0.3874 -0.143,0.74927 -0.217,1.0856l0.72,0.3815c0.07933,-0.46727 0.14167,-0.9563 0.187,-1.4671zM221.51,19.392v0.616h-3.296v-1.216h3.296zM218.814,19.392v0.016h2.096v-0.016zM224.158,19.392v0.016h2.096v-0.016zM226.254,18.792h0.6v0.6v0.616h-3.296v-1.216zM211.286,22.896v2.36h-7.744v-2.96h7.744zM204.142,22.896v1.76h6.544v-1.76z"></path></g></g><defs><filter id="filter_29_5" x="0" y="6.2470703125" width="184.5162353515625" height="32.8408203125" filterUnits="userSpaceOnUse" color-interpolation-filters="sRGB"><feFlood flood-opacity="0" result="feFloodId_29_5"/><feColorMatrix in="SourceAlpha" type="matrix" values="0 0 0 0 0 0 0 0 0 0 0 0 0 0 0 0 0 0 127 0" result="hardAlpha_29_5"/><feOffset dx="0" dy="2"/><feGaussianBlur stdDeviation="2"/><feComposite in2="hardAlpha_29_5" operator="out"/><feColorMatrix type="matrix" values="0 0 0 0 0 0 0 0 0 0 0 0 0 0 0 0 0 0 0.25 0"/><feBlend mode="normal" in2="feFloodId_29_5" result="dropShadow_1_29_5"/><feBlend mode="normal" in="SourceGraphic" in2="dropShadow_1_29_5" result="shape_29_5"/></filter><filter id="filter_29_6" x="64.19775390625" y="52.52001953125" width="166.69000244140625" height="23.21337890625" filterUnits="userSpaceOnUse" color-interpolation-filters="sRGB"><feFlood flood-opacity="0" result="feFloodId_29_6"/><feColorMatrix in="SourceAlpha" type="matrix" values="0 0 0 0 0 0 0 0 0 0 0 0 0 0 0 0 0 0 127 0" result="hardAlpha_29_6"/><feOffset dx="0" dy="2"/><feGaussianBlur stdDeviation="2"/><feComposite in2="hardAlpha_29_6" operator="out"/><feColorMatrix type="matrix" values="0 0 0 0 0 0 0 0 0 0 0 0 0 0 0 0 0 0 0.25 0"/><feBlend mode="normal" in2="feFloodId_29_6" result="dropShadow_1_29_6"/><feBlend mode="normal" in="SourceGraphic" in2="dropShadow_1_29_6" result="shape_29_6"/></filter><filter id="filter_29_7" x="188.749755859375" y="10.080078125" width="67.64801025390625" height="25.52001953125" filterUnits="userSpaceOnUse" color-interpolation-filters="sRGB"><feFlood flood-opacity="0" result="feFloodId_29_7"/><feColorMatrix in="SourceAlpha" type="matrix" values="0 0 0 0 0 0 0 0 0 0 0 0 0 0 0 0 0 0 127 0" result="hardAlpha_29_7"/><feOffset dx="0" dy="2"/><feGaussianBlur stdDeviation="2"/><feComposite in2="hardAlpha_29_7" operator="out"/><feColorMatrix type="matrix" values="0 0 0 0 0 0 0 0 0 0 0 0 0 0 0 0 0 0 0.25 0"/><feBlend mode="normal" in2="feFloodId_29_7" result="dropShadow_1_29_7"/><feBlend mode="normal" in="SourceGraphic" in2="dropShadow_1_29_7" result="shape_29_7"/></filter></defs></svg>